<svg xmlns="http://www.w3.org/2000/svg" xmlns:xlink="http://www.w3.org/1999/xlink" width="64" height="64" viewBox="0 0 64 64">
    <defs>
        <path id="a" d="M32 64C14.327 64 0 49.673 0 32 0 14.327 14.327 0 32 0c17.673 0 32 14.327 32 32 0 17.673-14.327 32-32 32zM16.328 22.89c-.036.137-.036.137.16-.323.29 1.103.63 2.292.92 3.395.014.223.15.26.324.16.793-.227 1.672-.504 2.602-.694.929-.19 1.812.339 2.039 1.132 1.56 5.103 2.985 10.17 4.409 15.236.263.657-.056 1.303-.85 1.53-.655.263-1.448.49-2.154.667-.26.15-.347.2-.283.51.14.842.243 1.822.347 2.801.027.447.09.757.117 1.203 2.378-.68 4.67-1.31 6.962-1.941.1.173.064.31.114.396.367 1.636.87 3.308 1.374 4.98.013.224.063.31.373.247.966-.327 1.932-.654 2.948-.894.31-.063.26-.15.246-.373-.276-.88-.467-1.81-.743-2.689-.277-.879-.467-1.808-.744-2.688a94.34 94.34 0 0 1 2.465-.73c.223-.014.187.123.287.296.366 1.636.87 3.308 1.374 4.98.013.224.063.31.373.247.88-.277 1.895-.517 2.775-.794.533-.077.483-.163.37-.56-.454-1.585-.958-3.258-1.411-4.843-.064-.31.06-.497.37-.56 1.881-.74 3.713-1.567 5.382-2.877 1.286-.973 2.148-2.28 2.45-3.955.23-1.403.063-2.692-.29-4.104-.29-1.103-.804-2.192-1.527-3.045-1.047-1.012-2.29-1.565-3.779-1.744-.496-.06-.943-.033-1.439-.093.173-.1.21-.237.296-.287.543-.66 1.036-1.406 1.256-2.226.293-1.093.139-2.159-.151-3.261-.454-1.586-1.34-2.921-2.87-3.77a8.483 8.483 0 0 0-3.452-.779l-3.607.351c-.31.063-.447.027-.51-.283-.077-.533-.24-1.016-.404-1.5-.34-1.188-.68-2.378-1.07-3.653-.087.05-.137-.037-.224.013-1.102.29-2.068.617-3.084.857-.223.014-.26.15-.16.323l.34 1.19a53.236 53.236 0 0 0 1.034 3.79c-.037.137-.023.36-.11.41-.793.227-1.672.504-2.465.73a.756.756 0 0 0-.113-.396c-.454-1.585-.957-3.258-1.411-4.843-.013-.223-.063-.31-.373-.247-.966.327-1.846.604-2.862.844-.31.064-.346.2-.283.51.504 1.672.958 3.258 1.461 4.93.064.31.027.447-.283.51-1.103.29-2.155.667-3.258.957-1.102.29-2.155.667-3.258.957zm16.767 18.841c-.404-1.499-.844-2.861-1.197-4.274-.327-.966-.517-1.895-.844-2.861-.063-.31-.113-.397.196-.46 1.932-.654 3.951-1.357 6.01-1.391.943.033 1.886.066 2.719.509 1.752.835 2.31 3.4.964 4.87-.753.896-1.705 1.446-2.795 1.96-1.522.763-3.244 1.18-4.83 1.634 0 0-.136-.037-.223.013zm2.175-13.033c-1.386.8-2.662 1.19-4.06 1.767-.397.113-.707.176-1.103.29-.224.013-.36-.023-.374-.247-.53-2.118-1.097-4.1-1.714-6.169-.063-.31-.027-.446.283-.51 1.499-.403 2.861-.844 4.374-1.024.98-.104 2.059-.034 2.942.496 1.716.972 1.95 3.377.504 4.673-.296.287-.68.624-.852.724z"/>
    </defs>
    <g fill="none" fill-rule="evenodd">
        <mask id="b" fill="#fff">
            <use xlink:href="#a"/>
        </mask>
        <use fill="#4BCF51" xlink:href="#a"/>
        <g mask="url(#b)">
            <path d="M0 0h64v64H0z"/>
        </g>
    </g>
</svg>
