<svg xmlns="http://www.w3.org/2000/svg" xmlns:xlink="http://www.w3.org/1999/xlink" width="64" height="64" viewBox="0 0 64 64">
    <defs>
        <path id="a" d="M32 64C14.327 64 0 49.673 0 32 0 14.327 14.327 0 32 0c17.673 0 32 14.327 32 32 0 17.673-14.327 32-32 32zm-8.681-48.353c-.101.1-.101.1.302-.202-.302 1.11-.605 2.322-.908 3.432-.101.202 0 .303.202.303.807.202 1.716.404 2.624.706.909.303 1.414 1.212 1.212 2.02-1.212 5.249-2.524 10.397-3.836 15.545-.101.707-.707 1.11-1.514.909-.707-.101-1.515-.303-2.221-.505-.303 0-.404 0-.505.303-.303.807-.707 1.716-1.11 2.624-.202.404-.303.707-.505 1.11 2.423.606 4.744 1.212 7.066 1.818 0 .202-.1.303-.1.404-.505 1.615-.91 3.33-1.313 5.047-.101.202-.101.303.202.404 1.01.202 2.019.403 3.028.706.303.101.303 0 .404-.202.202-.908.505-1.817.707-2.725.202-.909.504-1.817.706-2.726.909.202 1.716.404 2.524.606.202.1.1.202.1.404-.504 1.615-.908 3.331-1.311 5.047-.101.202-.101.303.201.404.909.202 1.918.505 2.827.706.505.202.505.101.606-.302.403-1.615.807-3.332 1.211-4.947.1-.303.303-.404.606-.303 2.019.303 4.038.505 6.157.202 1.616-.202 3.029-.908 4.14-2.22.908-1.11 1.412-2.322 1.816-3.736.303-1.11.404-2.321.202-3.432-.404-1.413-1.211-2.523-2.423-3.432-.403-.303-.807-.505-1.211-.807.202 0 .303-.101.404-.101.807-.303 1.615-.707 2.22-1.313.808-.807 1.212-1.817 1.515-2.927.404-1.615.303-3.23-.606-4.745a8.563 8.563 0 0 0-2.624-2.422l-3.332-1.515c-.303-.1-.403-.201-.303-.504.202-.505.303-1.01.404-1.514.303-1.212.606-2.423.909-3.735-.101 0-.101-.101-.202-.101-1.11-.303-2.12-.505-3.13-.808-.201-.1-.302 0-.302.202l-.303 1.211a53.74 53.74 0 0 0-1.01 3.836c-.1.101-.201.303-.302.303-.808-.202-1.717-.404-2.524-.606.1-.201.1-.302.1-.403.405-1.616.808-3.332 1.212-4.947.101-.202.101-.303-.202-.404a30.825 30.825 0 0 1-2.927-.706c-.303-.101-.404 0-.505.303-.404 1.716-.807 3.33-1.211 5.047-.101.303-.202.404-.505.303-1.11-.303-2.22-.505-3.331-.808-1.11-.303-2.221-.504-3.331-.807zm5.148 24.933c.404-1.514.707-2.927 1.11-4.34.202-1.01.505-1.918.707-2.928.1-.303.1-.403.404-.303 2.019.404 4.138.808 5.956 1.817.807.505 1.615 1.01 2.12 1.818 1.11 1.615.302 4.138-1.616 4.744-1.11.404-2.22.404-3.432.303-1.716-.101-3.432-.606-5.047-1.01 0 0-.101-.1-.202-.1zm8.48-10.296c-1.616 0-2.928-.303-4.442-.505-.404-.1-.707-.202-1.11-.303-.203-.1-.304-.202-.203-.403.606-2.12 1.11-4.14 1.616-6.26.1-.302.201-.403.504-.302 1.514.404 2.928.707 4.341 1.312.909.404 1.817 1.01 2.322 1.918 1.01 1.716 0 3.937-1.918 4.341-.404.101-.909.202-1.11.202z"/>
    </defs>
    <g fill="none" fill-rule="evenodd">
        <mask id="b" fill="#fff">
            <use xlink:href="#a"/>
        </mask>
        <use fill="#F5B300" fill-rule="nonzero" xlink:href="#a"/>
        <g fill="#FFF" mask="url(#b)">
            <path d="M0 0h64v64H0z"/>
        </g>
    </g>
</svg>
