<svg xmlns="http://www.w3.org/2000/svg" xmlns:xlink="http://www.w3.org/1999/xlink" width="128" height="35" viewBox="0 0 128 35">
    <defs>
        <path id="a" d="M35.86 10.108c-.163.445-.46.797-.91 1.068a3.331 3.331 0 0 1-1.783.496c-.862 0-1.588-.261-2.216-.802-.518-.443-.84-1.004-.978-1.7h9.303v.938H35.86zm-4.916-5.624c.623-.622 1.342-.924 2.198-.924.87 0 1.587.3 2.185.91.333.347.58.725.741 1.141h-5.874c.164-.41.414-.785.75-1.127zm-8.76 6.027c-.522.792-1.178 1.161-2.065 1.161-.974 0-1.665-.4-2.172-1.258-.438-.748-.661-1.687-.661-2.798 0-1.091.23-2.03.686-2.795.507-.861 1.19-1.261 2.147-1.261.887 0 1.543.369 2.065 1.163.51.773.768 1.745.768 2.893 0 1.147-.258 2.121-.768 2.895zm-12.5.007c-.587.777-1.387 1.155-2.445 1.155-1.075 0-1.881-.378-2.471-1.16-.567-.735-.84-1.683-.84-2.897 0-1.18.295-2.146.906-2.954C5.395 3.92 6.181 3.56 7.24 3.56c1.057 0 1.858.377 2.445 1.152.565.757.842 1.706.842 2.903 0 1.198-.277 2.147-.842 2.902zm41.238-8.995C49.857.6 48.517.133 46.942.133a6.495 6.495 0 0 0-3.208.816 5.195 5.195 0 0 0-.53.338v-.81h-3.928v3.01c-.2-.349-.421-.685-.675-1C37.286.838 35.45 0 33.141 0c-2.292 0-4.15.81-5.517 2.404A7.401 7.401 0 0 0 26.36 4.5a6.861 6.861 0 0 0-1.502-2.498C23.68.76 22.209.133 20.482.133a6.036 6.036 0 0 0-3.196.908V.476h-3.927v2.902c-.32-.523-.708-1-1.167-1.433C10.833.655 9.162.001 7.226.001c-1.934 0-3.607.654-4.97 1.945C.76 3.376 0 5.286 0 7.616c0 2.333.76 4.241 2.258 5.672 1.361 1.29 3.034 1.946 4.968 1.946 1.936 0 3.607-.657 4.969-1.948a7.04 7.04 0 0 0 1.164-1.442v8.452h3.927v-6.113c.188.114.385.218.592.314a6.47 6.47 0 0 0 2.707.576c1.683 0 3.133-.588 4.308-1.746.684-.678 1.19-1.504 1.521-2.465.299.71.698 1.368 1.21 1.964 1.365 1.597 3.224 2.407 5.518 2.407 1.587 0 3.003-.4 4.207-1.188a6.036 6.036 0 0 0 1.927-2.018v2.729h3.927V6.452c0-.98.283-1.72.869-2.26.537-.499 1.18-.738 1.963-.738.796 0 1.436.238 1.96.734.587.544.873 1.285.873 2.264v8.304h3.925V5.974c0-1.872-.626-3.368-1.871-4.451z"/>
        <path id="c" d="M27.654 0l-6.16 8.6 6.16 8.6h-5.417l-3.452-4.82-3.452 4.82H9.917l6.16-8.6-2.965-4.14h-8.74v1.91h7.333v4.46H4.372v6.37H0V0H15.333l3.452 4.82L22.238 0h5.416zm50.553 19.422h.396l-.848 2.046c-.097.236-.23.548-.578.548-.084 0-.194-.01-.298-.032v-.298a.706.706 0 0 0 .214.039c.173 0 .23-.056.367-.432l-.783-1.871h.412l.561 1.457.557-1.457zm-2.633.877v.14h-1.538c.028.383.23.583.602.583.29 0 .46-.115.525-.368h.38c-.098.407-.445.653-.922.653-.601 0-.965-.369-.965-.962 0-.59.388-.962.99-.962.646 0 .928.4.928.916zm-.37-.144c-.025-.308-.231-.488-.566-.488-.328 0-.53.162-.59.488h1.155zm-3.547-.779c.291 0 .538.13.618.33.045.109.053.162.053.386v1.17h-.363v-1.117c0-.351-.122-.478-.417-.478-.238 0-.432.116-.496.281-.04.102-.045.137-.045.351v.962h-.367v-1.84h.367v.246c.214-.22.372-.29.65-.29zm-2.35.969c0 .6-.36.962-.96.962-.595 0-.958-.362-.958-.962 0-.607.363-.969.957-.969.602 0 .961.362.961.969zm-.387-.014c0-.421-.214-.664-.574-.664-.355 0-.57.243-.57.678 0 .425.215.677.57.677.364 0 .574-.252.574-.691zm-3.538-.955c.477 0 .643.264.643.632v1.253h-.368v-1.2c0-.274-.109-.394-.355-.394-.186 0-.388.11-.436.257-.049.084-.053.154-.053.361v.976h-.367v-1.155c0-.337-.065-.439-.311-.439-.223 0-.42.116-.497.302-.033.078-.029.11-.029.31v.982h-.367v-1.84h.367v.232c.223-.207.372-.277.614-.277.247 0 .396.077.53.277.222-.207.379-.277.63-.277zm-5.798.885c.347.12.444.231.444.456 0 .351-.34.59-.844.59-.546 0-.848-.232-.848-.646h.38c.007.256.149.361.476.361.274 0 .452-.105.452-.266 0-.081-.036-.116-.202-.18l-.662-.245c-.267-.098-.372-.221-.372-.421 0-.316.315-.534.784-.534.428 0 .78.186.78.586h-.364c-.008-.2-.15-.295-.432-.295-.23 0-.396.088-.396.218 0 .063.052.116.182.162l.622.214zm-2.383.038v.14h-1.539c.029.383.23.583.602.583.29 0 .46-.115.525-.368h.38c-.097.407-.444.653-.921.653-.602 0-.965-.369-.965-.962 0-.59.387-.962.99-.962.645 0 .928.4.928.916zm-.372-.144c-.024-.308-.23-.488-.565-.488-.327 0-.53.162-.59.488h1.155zm-2.556-.733l-.803.684.824 1.155h-.445l-.626-.937-.287.232v.705h-.367v-2.513h.367v1.415l.86-.741h.477zm-3.052 1.6c.016 0 .044-.007.105-.007v.24a.725.725 0 0 1-.223.038c-.218 0-.315-.091-.335-.278-.21.2-.448.292-.73.292-.409 0-.691-.221-.691-.544 0-.6.864-.618 1.39-.664v-.091c0-.246-.126-.34-.453-.34-.303 0-.453.094-.469.326h-.38c.017-.18.04-.264.122-.362.137-.168.387-.256.727-.256.476 0 .812.123.812.586v.868c0 .133.028.192.125.192zm-.489-.677c-.456.056-.65.088-.768.14-.149.046-.222.144-.222.253 0 .18.142.284.388.284.331 0 .602-.192.602-.428v-.25zm-3.34-.969c.477 0 .643.264.643.632v1.253h-.368v-1.2c0-.274-.109-.394-.355-.394-.186 0-.388.11-.436.257-.049.084-.053.154-.053.361v.976h-.368v-1.155c0-.337-.064-.439-.31-.439-.223 0-.42.116-.497.302-.033.078-.029.11-.029.31v.982h-.367v-1.84h.367v.232c.223-.207.372-.277.614-.277.247 0 .396.077.53.277.222-.207.38-.277.63-.277zM36.076 20.88l.558-1.457h.396l-.849 2.046c-.096.236-.23.548-.577.548-.085 0-.194-.01-.299-.032v-.298a.707.707 0 0 0 .214.039c.174 0 .23-.056.368-.432l-.784-1.871h.412l.561 1.457zm-1.667-.58v.14h-1.539c.028.383.23.583.602.583.29 0 .46-.115.525-.368h.38c-.097.407-.445.653-.921.653-.602 0-.965-.369-.965-.962 0-.59.387-.962.99-.962.645 0 .928.4.928.916zm-.372-.144c-.024-.308-.23-.488-.565-.488-.327 0-.53.162-.59.488h1.155zm-3.137-.779c.29 0 .537.13.618.33.044.109.052.162.052.386v1.17h-.363v-1.117c0-.351-.122-.478-.416-.478-.238 0-.432.116-.497.281-.04.102-.045.137-.045.351v.962h-.367v-1.84h.367v.246c.215-.22.372-.29.65-.29zm-1.943.969c0 .6-.36.962-.96.962-.594 0-.958-.362-.958-.962 0-.607.364-.969.957-.969.602 0 .961.362.961.969zm-.387-.014c0-.421-.214-.664-.574-.664-.355 0-.57.243-.57.678 0 .425.215.677.57.677.364 0 .574-.252.574-.691zm-3.13-.955c.477 0 .642.264.642.632v1.253h-.367v-1.2c0-.274-.109-.394-.355-.394-.186 0-.388.11-.437.257-.048.084-.052.154-.052.361v.976h-.368v-1.155c0-.337-.064-.439-.31-.439-.223 0-.42.116-.497.302-.033.078-.029.11-.029.31v.982H23.3v-1.84h.367v.232c.222-.207.372-.277.614-.277.247 0 .396.077.53.277.221-.207.38-.277.63-.277zm-5.492 0c.291 0 .537.13.618.33.045.109.053.162.053.386v1.17h-.364v-1.117c0-.351-.121-.478-.416-.478-.238 0-.432.116-.497.281-.04.102-.044.137-.044.351v.962h-.367v-1.84h.367v.246c.214-.22.372-.29.65-.29zm-1.942.923v.14h-1.539c.029.383.23.583.602.583.29 0 .46-.115.525-.368h.38c-.097.407-.444.653-.92.653-.603 0-.966-.369-.966-.962 0-.59.387-.962.99-.962.645 0 .928.4.928.916zm-.371-.144c-.025-.308-.23-.488-.566-.488-.327 0-.529.162-.59.488h1.156zm-3.15-.779c.525 0 .682.264.682.678v1.207h-.363v-1.137c0-.33-.113-.457-.4-.457a.557.557 0 0 0-.448.194c-.085.101-.11.193-.11.424v.976h-.367v-2.513h.368v.874a.876.876 0 0 1 .638-.246zm-2.173.046h.388l-.638 1.84h-.367l-.408-1.415-.416 1.414h-.372l-.61-1.84h.404l.303 1.078c.032.11.052.162.089.355.036-.193.056-.246.089-.355l.315-1.077h.416l.303 1.063c.032.11.044.144.089.352.044-.2.052-.236.088-.352l.327-1.063zM84.97 2.177a2.195 2.195 0 0 1-.614 1.534 2.08 2.08 0 0 1-.672.468c-.252.11-.52.165-.807.165-.38 0-.73-.097-1.048-.29a2.111 2.111 0 0 1-.757-.79 2.193 2.193 0 0 1-.278-1.087c0-.389.093-.749.28-1.081.186-.333.44-.596.759-.79.32-.193.667-.29 1.044-.29.374 0 .722.097 1.044.29.322.194.577.457.766.791.188.333.283.694.283 1.08zm-.31 0a1.866 1.866 0 0 0-.89-1.603 1.696 1.696 0 0 0-.893-.248c-.322 0-.618.083-.89.248-.273.165-.488.39-.646.675a1.886 1.886 0 0 0-.237.928c0 .336.079.647.237.933.158.286.373.511.646.676.272.165.568.248.89.248.322 0 .62-.083.893-.25a1.873 1.873 0 0 0 .89-1.608zm-2.645 1.224V.934h.993c.273 0 .483.047.632.139.15.092.224.275.224.55 0 .134-.021.24-.063.319a.653.653 0 0 1-.236.225.43.43 0 0 1 .215.213c.034.085.053.21.058.373.005.162.012.287.023.372a.69.69 0 0 0 .11.276h-.44a1.85 1.85 0 0 1-.043-.413 2.932 2.932 0 0 0-.02-.36.266.266 0 0 0-.12-.185c-.072-.048-.192-.072-.362-.072h-.612V3.4h-.36zm.359-2.122v.747h.6c.133 0 .237-.012.314-.037a.292.292 0 0 0 .165-.116.41.41 0 0 0 .052-.222c0-.144-.037-.242-.112-.294-.074-.052-.206-.078-.396-.078h-.623z"/>
        <path id="e" d="M4.745 2.504c-.251.432-.49.784-.241 1.285.138.274.566.554.663.605.354.176.687.344.448.344-.736 0 .135.673-.948-.09-.18-.128-.545-.47-.577-.985-.038-.586.492-1.064.655-1.16m.63 3.786c-.004-.352 0-.742.181-.997a1.51 1.51 0 0 0 .06-.091c.108-.17.237-.379.618-.654-.901-.323-1.404-.753-1.474-1.17-.187-1.11 2.794-2.129 2.754-2.227-.038-.098-1.255.04-1.587.138-1.686.394-2.882 1.458-2.882 2.799 0 1.127 1.342 1.849 2.33 2.202m10.669-.96c-.647.651-1.619.561-1.619.561 1.118-.443.296-.798.56-.738.266.057.47-.03 1.266-.296.794-.267.441-.178-.207.473m.677-1.242c-.412.06-.5.088-.853.088-.113 0-.345.066-.602.155-.208.282-.437.53-.686.74-.34.29-.72.51-1.133.661.115.092.264.194.451.307.676.414 1.323.592 2.441-.325 1.117-.917 1.47-1.626 1.294-1.745-.177-.117-.5.06-.912.119m-4.224-2.774A16.916 16.916 0 0 0 6.972 4.25a2.862 2.862 0 0 1-.76-.089A17.595 17.595 0 0 1 11.853.952c.218.095.442.226.644.361m7.44 8.888c-.704 4.262-6.673 5.998-7.907 7.496-.808-.514 3.887-4.84 4.594-6.357.992-2.132-.117-3.566 1.102-4.263 1.03-.588 2.656.43 2.211 3.124m-9.897 1.35c-.743-.79-.369-1.432-.603-1.63-.277-.231-.377-.584.195-.493.565.09.962-.017 1.315-.255.553-.374.411-1.4 1.47-1.559 1.059-.157 1.86.136 1.645 1.454-.282 1.727-3.001 3.572-4.022 2.483m-.437-3.747c.645-.527 1.097-.511 1.283-.278.332.416-.024 1.175-.698 1.358-.187.05-1.041.16-1.215-.05-.175-.21.046-.554.63-1.03m-.813 2.867c-.256.139-.745-.374-1.079-.572-.333-.197-.627-.098-1.118-.038-.49.058-1.19.012-1.255-.18-.116-.354.295-.452.863-.55.569-.1.923.196 1.157.196.235 0 .494-.168 1.099.178.55.316.587.828.333.966m-1.158 2.79c-.47.354-1.441.108-1.441-.236 0-.357.451-.148.764-.148.315 0 .707-.248.53-.74-.082-.23-.078-.71.294-.296s.44.976-.147 1.42m-1.843-1.47c-.131.23-.53.651-.882.572-.354-.078-.646 0-.882.138-.235.138-1.118.532-1.157.08-.04-.474.274-1.183.922-1.44.647-.256 1.273-.414 1.607-.335.334.079.784.296.392.986m.57-4.87c.43-.157.333.198.097.513-.235.315-.117.849-.255 1.005-.136.159-.724.013-.902-.237-.294-.413.628-1.123 1.06-1.28m.195-1.893c.411-.314 1.569-.69 1.805-.788.234-.099.98-.493 1.234-.257.255.237-.294.493-.45.828-.158.336-.294 1.26-.257 1.756.04.491-.646-.199-.802-.593-.158-.394-.098-.513-.57-.375-.47.138-1.372-.255-.96-.57m10.141.69c-1.334.932-2.268.805-3.043.351a5.155 5.155 0 0 1-.452-.286 4.795 4.795 0 0 1-.393.088c-.19.032-.368.049-.535.049-1.028 0-1.45-.646-1.501-1.196-.077-.85.333-1.18.892-1.515-.974-.216-2.723.147-3.972.715-1.608.729-1.668 1.082-1.862 1.358-.196.277-.079 1.026-.137 1.225-.06.196-.314.51-.629.904-.313.396-.391.81-.373 1.046.022.237.256.553.373.65-.117.217-.529 1.303-.607 1.38-.177 0-.353.257-.431.335-.255.04-1.45.532-1.373 1.794.077 1.24.922 1.52 1.49 1.597.491.67 1.452.809 2.609.79.569-.01 1.147-.192 1.576-.36-4.09 6.308 1.546 12.552 3.768 13.818-.499-.802-5.313-7.179 4.428-12.416 7.816-4.202 4.903-10.72 1.636-11.621-.22.345-.747.795-1.464 1.295m8.566 18.732c-.026-.432.527-.383.65-.308.122.073.196.27.048.27-.147 0-.403.198-.085.408.084.055-.589.06-.613-.37m2.989 5.93c.222.08.44.14.643.172C25.828 33.394 21.852 35 17.5 35 7.849 35 0 27.15 0 17.5A17.38 17.38 0 0 1 4.031 6.363c.185.082.38.148.556.196A16.857 16.857 0 0 0 .558 17.5c0 9.344 7.599 16.942 16.942 16.942 4.078 0 7.824-1.448 10.75-3.858m-2.397-11.787c0 .074-.124.022-.14-.051l-.036-.215s.294-.347.368-.347c.041 0 .11.192.11.296 0 .105-.044.162-.213.155-.17-.007-.089.089-.089.162m5.722 2.183c-.06.109-.214-.079-.275-.048-.06.03-.186-.01-.186-.098 0-.089.126-.158.283-.148.157.01.237.186.178.294m.077 1.036a1.338 1.338 0 0 0-.45.01c-.187.028-.138 0-.363-.01-.225-.01-.361-.266-.313-.375.106-.246.323-.227.47-.186.148.038.392.246.48.306.088.058.148.039.392.116.245.079-.068.16-.216.14m.421-1.183c.138-.049.237.127.237.197s-.107.048-.148.02c-.147-.11-.089-.217-.089-.217m-1.353-.188c-.176.169-1.032.516-1.046.946-.016.429.738.977 1.636.828.896-.148 1.186-.763 1.176-1.034-.015-.4-.5-1.302-1.323-1.613.015.208-.21.65-.443.873m-.832 7.348c.21.192.295.793.226 1-.06.178-.306.274-.412.188-.227-.188-.508-.62-.422-.655.328-.134.398-.726.608-.533m-.764-4.637c-.04-.247-.02-.76.294-.571.313.187.538.057.518.156-.018.1-.106.138-.205.208-.076.053-.344.324-.393.442-.049.12-.176.01-.214-.235m-1.197-2.12c-.232-1.271 2.775-1.074 2.01-.66 0 0-.568.285-.677.601-.29.843-1.209.737-1.333.06m-.835 6.18c-.53.177-1.324.22-1.767.045-.747-.3.618-.31 1.457-1.109.481-.459.619-1.287 1.412-.755.735.493-.574 1.641-1.102 1.818m-2.518-2.247c-.134-.24-.08-.573.088-.74.173-.172.493-.365 1.167-.412.566-.04.859-.234.987-.295.128-.06.266 1.295-.92 1.633-.641.183-1.18.065-1.322-.186m-.626-4.917c.03.496-.52.843-.774.66-.255-.183-.15-1.286.064-2.056.644-2.316 2.612-3.174 3.157-3.099-.037.294-1.389.595-1.925 1.712-.69 1.435-.553 2.285-.522 2.783m-2.51 2.614c-1.894 2.42-5.672-1.211-1.098-4.221 1.422-.936 2.358-2.248 2.815-2.896.147.856-1.262 2.72-1.598 3.75-.595 1.822.78 2.22-.118 3.367m-5.876 7.063c-1.705-1.082-.96-3.419-.781-2.577.39 1.84 2.722 1.702 3.65 2.186.824.429-.896 1.644-2.869.391m12.32-13.853c.485.133.236.518.073.43-.16-.09-.647-.015-1.03.205-.381.224-1.073.948-1.219 1.154-.148.206-.25.606-.22.902-.119-.148-.156-.497-.075-.813.118-.457.662-1.138 1.28-1.568.617-.428 1.192-.31 1.192-.31M26.78 19.79c.383-.113.823-.4.632-.074-.193.325-.674.753-1.353.695-.575-.048-1.28-.534-1.251-1.035.027-.46.338-.488.486-.37.147.118.512 1.071 1.486.784m2.793 2.413c.128.12.157.316.588.395.648.12.373.157.226.189-.147.028-.627.008-.872-.099-.217-.096-.437-.367-.392-.463.098-.218.323-.14.45-.022m.53 4.164c.25-.851-.383-1.98-.471-2.128-.088-.148-.192-.25-.176-.43.014-.175.632-.811.78-.945.411.074.64-.077.739-.206.342-.01.54-.148.54-.148l.054-.03c-.153.053-.52.11-.565.11-.515 0-1.026-.17-1.325-.48-.156-.162-.232-.337-.229-.508.016-.689.661-.878.986-1.162.339-.295.54-.914.54-.914s.475-.077 1.078.841c0-.533-.286-.817-.525-1.021-.294-.252-.838-.133-.838-.133-.81-.754-1.456-.592-1.736-.577-.353.018-.778.252-1.22.37.08-.143.15-.27.217-.384a.458.458 0 0 1-.122.016.128.128 0 0 1-.05-.014c.006.002.006.007.01.008-.076.105-.146.19-.202.24-.31.28-.323.282-.749.414-.427.132-1.177-.192-1.222-.65-.044-.457.383-.827 1.074-1.493.691-.665 1.31-.458 1.53-.37 0 0 .361.203.357.421a.645.645 0 0 1 .117.036c.142-.894-.43-1.396-.812-1.58-.398-.194-.81.28-.796.176.016-.103.412-1.906-.235-3.947-.94-2.676-3.057-4.877-6.329-6.193 1.646 1.014 6.313 7.97-3.024 12.88-8.569 4.505-5.867 9.98-3.12 11.649-5.714-1.406-9.952-6.552-9.952-12.688 0-.685.052-1.358.154-2.015-.26-.046-.683-.633-.972-.556a14.173 14.173 0 0 0-.234 2.571c0 7.798 6.336 14.12 14.152 14.12 1.14 0 2.248-.135 3.31-.389-.301-.3-.494-.617-.671-.913-.016-.031-.033-.061-.049-.094-.783-1.62.393-3.867.393-3.867s2.387 1.764 3.495 1.686c.12.158.764 1.198.462 2.304 1.007-.268 2.162-.636 2.954-1.082.312.24.955.62 1.24.758.824.4 1.368.237 1.59-.03.188-.23.409-1.747-.585-2.707.195-.306.34-.62.437-.946m-7.427 4.245c-1.132.06-1.338-.843-1.441-1.227-.104-.385.324-1.034.324-1.034.072-.298.617.028.837.16.22.134 1.044.283 1.015.415-.03.134-1.293.104-1.322.266-.031.164.94.265 1.234.252.294-.016.485 1.109-.647 1.168m1.176-2.306c-1.22.058-3.088-1.05-3.088-1.05-.044.073-.853 1.61-.338 2.869.515 1.255 1.956 1.492 2.633 1.27.752-.245 1.735-1.241.793-3.089M9.632 8.06c0-.143.45-.359.628.018.157.336-.098.533-.274.533-.12 0-.373-.098-.333-.237.023-.085.308.06.274-.177-.02-.137-.295-.039-.295-.137M35 17.5c0 4.29-1.558 8.218-4.128 11.266-.03-.273-.065-.54-.1-.766a16.85 16.85 0 0 0 3.67-10.5C34.441 8.158 26.84.558 17.5.558c-.548 0-1.09.031-1.626.083a6.086 6.086 0 0 0-.711-.467A17.615 17.615 0 0 1 17.5 0C27.15 0 35 7.85 35 17.5M14.45 2.553c-.114.677-.794 1.196-1.127 1.446-1.664 1.252-.659-.056-1.337.3-.217-.148 1.102-1.022 1.145-1.109.306.13 1.52-1.119.195-2.293.174.161 1.275.747 1.123 1.656m-.895-.912c.168.53-.236 1.165-1.137 1.717-.902.55-1.408.805-1.314 1.536.04.31.275 1.086 1.647.85 1.373-.238 2.274-1.145 2.844-2.268.569-1.124.61-2.85-2.016-3.325-2.139-.353-3.684.412-3.684.49.039.158 3.224-.38 3.66 1m14.775 16.352l-.065.104a.426.426 0 0 0-.073-.1.783.783 0 0 1 .024-.041c.034.017.074.03.114.037m2.268.433c.004-.056.03-.655.03-.9 0-6.983-5.488-12.687-12.396-13.051.159-.239.306-.642.418-1.024 7.292.57 13.03 6.654 13.03 14.075 0 .353-.05 1.209-.058 1.289-.234-.234-.698-.064-1.024-.39m-2.465-.166c.073.045.155.213.148.243l-.239-.162c-.05-.068.05-.106.091-.08m-.301.294c.125 0 .183-.06.28-.06.095 0 .294.213.206-.036-.088-.252-.17-.547-.332-.341-.034.046-.278.437-.154.437m-1.11-.596l-.288-.036c-.075-.036-.002-.118.046-.114.085.006.233.12.242.15m-.132-.32c-.067-.023-.213.081-.34.17-.124.088-.079.28-.079.28s.145-.044.227-.059c.118-.021.39.052.42-.014.058-.104-.168-.358-.228-.378m2.501.186c.117.092.206.293.185.313-.076-.06-.378-.317-.378-.317-.069-.093.129-.047.193.004m.307.487c.096-.05-.154-.458-.249-.607-.096-.147-.405-.383-.53-.413-.147-.037-.37.276-.39.333-.125.376.177.257.574.347.397.088.5.39.595.34M27.9 17.06c-.045-.007-.134-.124-.134-.124.008-.038.03-.053.089-.098.058-.044.11.052.139.038.03-.016.067-.03.154 0 .089.029.096.081.126.081.028 0 .072 0 .124.014.052.016.05.053.09.133.038.086-.077.08-.09.103-.014.031-.052.054-.088 0a2.092 2.092 0 0 0-.087-.11s-.06.053-.097.03c-.036-.023-.094-.081-.116-.097-.024-.014-.067.038-.11.03m-.361.157c.169.087.361.427.346.486a31.95 31.95 0 0 1-.56-.324c-.117-.134.119-.213.214-.162m-.509.25c.097-.007.332.062.442.12.104.05.507.324.543.309.038-.016.008-.423-.285-.739-.351-.38-.596-.192-.684-.133-.089.058-.22.243-.22.325 0 .09.11.124.204.117"/>
    </defs>
    <g fill="none" fill-rule="evenodd">
        <g transform="translate(68.588 10.017)">
            <mask id="b" fill="#fff">
                <use xlink:href="#a"/>
            </mask>
            <g fill="#F50" mask="url(#b)">
                <path d="M-3.52-1.032h63.046v22.016H-3.52z"/>
            </g>
        </g>
        <g transform="translate(42.778 8.985)">
            <mask id="d" fill="#fff">
                <use xlink:href="#c"/>
            </mask>
            <g fill="#FFF" mask="url(#d)">
                <path d="M0 0h85.062v22.016H0z"/>
            </g>
        </g>
        <g>
            <g>
                <mask id="f" fill="#fff">
                    <use xlink:href="#e"/>
                </mask>
                <g fill="#F50" mask="url(#f)">
                    <path d="M0 0h35v35H0z"/>
                </g>
            </g>
        </g>
    </g>
</svg>
