<svg xmlns="http://www.w3.org/2000/svg" xmlns:xlink="http://www.w3.org/1999/xlink" width="64" height="64" viewBox="0 0 64 64">
    <defs>
        <path id="a" d="M32 64C14.327 64 0 49.673 0 32 0 14.327 14.327 0 32 0c17.673 0 32 14.327 32 32 0 17.673-14.327 32-32 32zm8.7-28.2c-1-.3-2-.4-2.9-.4-.9.1-1.9-.3-2.4-1.1l-.3-.4c-.6-.9-.6-2 0-2.9l.3-.5c.5-.7 1.3-1.1 2.2-1.1 1.1 0 2.2-.2 3.3-.8 2.7-1.4 4.5-4.1 4.4-7.1-.1-4.3-3.7-7.7-8.1-7.5-3.7.2-6.8 3.2-7.2 6.9-.2 2 .4 3.8 1.4 5.3.6.9.6 2.1 0 3l-.1.1c-.5.7-1.3 1.1-2.1 1.1h-.5c-1 0-1.9-.6-2.3-1.5-1.3-2.6-4-4.3-7.1-4.2-4 .1-7.3 3.4-7.4 7.4-.2 4.4 3.3 8 7.7 8 3 0 5.6-1.7 6.8-4.2.4-.9 1.3-1.5 2.3-1.5h.4c.9 0 1.7.4 2.1 1.1l.5.7c.6.8.5 1.9 0 2.7-.9 1.4-1.3 3-1.1 4.8.3 3.6 3.3 6.5 6.8 6.9 4.9.5 8.9-3.6 8.5-8.4-.2-2.9-2.3-5.5-5.2-6.4z"/>
    </defs>
    <g fill="none" fill-rule="evenodd">
        <mask id="b" fill="#fff">
            <use xlink:href="#a"/>
        </mask>
        <use fill="#1276A7" fill-rule="nonzero" xlink:href="#a"/>
        <g mask="url(#b)">
            <path d="M0 0h64v64H0z"/>
        </g>
    </g>
</svg>
