<svg xmlns="http://www.w3.org/2000/svg" xmlns:xlink="http://www.w3.org/1999/xlink" width="64" height="64" viewBox="0 0 64 64">
    <defs>
        <path id="a" d="M32 64C14.327 64 0 49.673 0 32 0 14.327 14.327 0 32 0c17.673 0 32 14.327 32 32 0 17.673-14.327 32-32 32zm4.422-28.467c8.429-.498 14.667-2.417 14.667-4.7 0-2.272-6.19-4.186-14.569-4.692v-4.07h10.533v-7.09H17.62v6.991h10.533v4.14c-8.628.461-15.06 2.404-15.06 4.722 0 2.658 8.465 4.824 18.998 4.824-1.379 0-2.658 0-3.938-.098v14.67h8.269V35.534zm-8.17-5.585v2.363c1.18 0 2.559.098 3.937.098 1.477.099 2.953.099 4.331 0v-5.438c8.135.661 12.404 3.02 12.994 3.863-.689.984-6.3 2.461-17.423 2.461-11.025 0-16.735-1.477-17.424-2.461.602-.946 5.032-3.318 13.486-3.904v3.018h.099z"/>
    </defs>
    <g fill="none" fill-rule="evenodd">
        <mask id="b" fill="#fff">
            <use xlink:href="#a"/>
        </mask>
        <use fill="#00A478" fill-rule="nonzero" xlink:href="#a"/>
        <g fill="#FFF" mask="url(#b)">
            <path d="M0 0h64v64H0z"/>
        </g>
    </g>
</svg>
