<?xml version="1.0" encoding="utf-8"?>
<svg style="display: none" xmlns="http://www.w3.org/2000/svg" xmlns:xlink="http://www.w3.org/1999/xlink">
<symbol xmlns="http://www.w3.org/2000/svg" width="64" height="64" viewBox="0 0 64 64" id="ethereum-c">
    <g fill="none" fill-rule="evenodd">
        <g fill-rule="nonzero">
            <path fill="#8A92B2" d="M32.597.788v22.941c0 .099-.097.197-.195.197-.682.296-1.267.59-1.95.886-.877.394-1.852.788-2.73 1.28l-3.217 1.477-2.633 1.182-3.217 1.477c-.878.394-1.755.787-2.73 1.28-.683.295-1.463.689-2.145.984-.098 0-.098.099-.195 0h-.098c.293-.492.585-.886.878-1.378 1.56-2.659 3.217-5.317 4.777-7.976 1.658-2.855 3.413-5.71 5.07-8.566 1.56-2.658 3.12-5.317 4.68-7.877 1.17-1.969 2.34-3.84 3.413-5.809.195 0 .195-.098.292-.098-.097 0 0 0 0 0z"/>
            <path fill="#454A75" d="M51.513 32.492c-1.463.985-3.023 1.871-4.485 2.757-4.778 2.856-9.458 5.613-14.235 8.468-.098 0-.098.098-.195.098-.098 0-.098-.098-.098-.098v-.295-19.2-.296c0-.098.098-.098.195-.098.39.197.78.394 1.267.59 1.17.591 2.438 1.084 3.608 1.674 1.072.493 2.047.985 3.12 1.379 1.072.492 2.047.984 3.12 1.477.877.394 1.852.787 2.73 1.28.877.394 1.852.787 2.73 1.28.682.295 1.365.689 2.145.984 0-.098 0 0 .097 0z"/>
            <path fill="#8A92B2" d="M32.597 63.114s-.097 0 0 0c-.097 0-.097 0-.195-.099-1.95-2.757-3.802-5.415-5.752-8.172l-5.85-8.27c-1.853-2.66-3.803-5.318-5.655-8.075l-1.463-2.067c0-.099-.097-.099-.097-.197.097 0 .097.098.195.098 2.632 1.576 5.362 3.151 7.995 4.726 3.022 1.871 6.143 3.644 9.165 5.514.487.296 1.072.591 1.56.886.098 0 .098.099.098.197v15.459z"/>
            <path fill="#62688F" d="M13.682 32.59c0-.098 0-.098 0 0 .975-.492 1.95-.885 2.925-1.378l3.803-1.772c.975-.492 1.95-.886 2.925-1.378 1.365-.69 2.827-1.28 4.192-1.97.975-.394 1.95-.886 2.925-1.28.683-.295 1.365-.59 2.048-.984.098 0 .098-.099.195-.099V43.815c-.098.099-.098 0-.195 0-.293-.197-.585-.295-.78-.492L13.878 32.69c-.098-.098-.196-.098-.196-.098zM51.415 36.234c0 .098 0 .098-.097.197-5.655 8.074-11.31 16.049-16.965 24.123-.586.886-1.17 1.674-1.756 2.56v-.099-.197-15.064-.296c1.268-.787 2.535-1.575 3.803-2.264l14.917-8.862c0-.098.098-.098.098-.098z"/>
            <path fill="#62688F" d="M32.597 23.828v-.197V1.083.886l18.72 31.31c.098.1.195.198.195.296-.39-.197-.78-.394-1.267-.59-.488-.197-.975-.493-1.463-.69-.292-.098-.585-.295-.975-.394-.487-.196-1.072-.492-1.56-.689-.292-.098-.585-.295-.877-.394l-2.048-.886c-.39-.197-.682-.295-1.072-.492-.488-.197-.975-.492-1.463-.69-.292-.098-.585-.295-.877-.393l-2.048-.886c-.39-.197-.682-.296-1.072-.493-.488-.197-.975-.492-1.463-.689-.292-.197-.682-.295-.975-.492l-1.755-.886z"/>
        </g>
        <path d="M0 0h64v64H0z"/>
    </g>
</symbol>
<symbol xmlns="http://www.w3.org/2000/svg" width="64" height="64" viewBox="0 0 64 64" id="emercoin-c">
    <g fill="none" fill-rule="evenodd">
        <path fill="#E4B9F7" d="M38.815 25.588h-4.74v8.824L29.63 30v-4.412h-9.482v-5h23.704v23.236l-5.037-5z"/>
        <path fill="#B898E1" d="M29.63 30l4.444 4.412H20.148V30h9.482zm14.222 13.824H20.148v-5h18.667l5.037 5z"/>
        <path fill="#E4B9F7" fill-rule="nonzero" d="M19.246 10.588L6.505 32.44l12.741 21.853h25.508L57.495 32.44 44.754 10.588H19.246zM48 5l16 27.44-16 27.44H16L0 32.44 16 5h32z"/>
        <path fill="#B898E1" fill-rule="nonzero" d="M19.255 10.596L6.52 32.44 19.26 54.293h25.508l.003-.006 3.248 5.561L16 59.881 0 32.44 15.994 5.01z"/>
    </g>
</symbol>

<symbol  width="64" height="64" viewBox="0 0 64 64"><defs><path id="bitcoin-btc" d="M32 64C14.327 64 0 49.673 0 32 0 14.327 14.327 0 32 0c17.673 0 32 14.327 32 32 0 17.673-14.327 32-32 32zm-8.681-48.353c-.101.1-.101.1.302-.202-.302 1.11-.605 2.322-.908 3.432-.101.202 0 .303.202.303.807.202 1.716.404 2.624.706.909.303 1.414 1.212 1.212 2.02-1.212 5.249-2.524 10.397-3.836 15.545-.101.707-.707 1.11-1.514.909-.707-.101-1.515-.303-2.221-.505-.303 0-.404 0-.505.303-.303.807-.707 1.716-1.11 2.624-.202.404-.303.707-.505 1.11 2.423.606 4.744 1.212 7.066 1.818 0 .202-.1.303-.1.404-.505 1.615-.91 3.33-1.313 5.047-.101.202-.101.303.202.404 1.01.202 2.019.403 3.028.706.303.101.303 0 .404-.202.202-.908.505-1.817.707-2.725.202-.909.504-1.817.706-2.726.909.202 1.716.404 2.524.606.202.1.1.202.1.404-.504 1.615-.908 3.331-1.311 5.047-.101.202-.101.303.201.404.909.202 1.918.505 2.827.706.505.202.505.101.606-.302.403-1.615.807-3.332 1.211-4.947.1-.303.303-.404.606-.303 2.019.303 4.038.505 6.157.202 1.616-.202 3.029-.908 4.14-2.22.908-1.11 1.412-2.322 1.816-3.736.303-1.11.404-2.321.202-3.432-.404-1.413-1.211-2.523-2.423-3.432-.403-.303-.807-.505-1.211-.807.202 0 .303-.101.404-.101.807-.303 1.615-.707 2.22-1.313.808-.807 1.212-1.817 1.515-2.927.404-1.615.303-3.23-.606-4.745a8.563 8.563 0 0 0-2.624-2.422l-3.332-1.515c-.303-.1-.403-.201-.303-.504.202-.505.303-1.01.404-1.514.303-1.212.606-2.423.909-3.735-.101 0-.101-.101-.202-.101-1.11-.303-2.12-.505-3.13-.808-.201-.1-.302 0-.302.202l-.303 1.211a53.74 53.74 0 0 0-1.01 3.836c-.1.101-.201.303-.302.303-.808-.202-1.717-.404-2.524-.606.1-.201.1-.302.1-.403.405-1.616.808-3.332 1.212-4.947.101-.202.101-.303-.202-.404a30.825 30.825 0 0 1-2.927-.706c-.303-.101-.404 0-.505.303-.404 1.716-.807 3.33-1.211 5.047-.101.303-.202.404-.505.303-1.11-.303-2.22-.505-3.331-.808-1.11-.303-2.221-.504-3.331-.807zm5.148 24.933c.404-1.514.707-2.927 1.11-4.34.202-1.01.505-1.918.707-2.928.1-.303.1-.403.404-.303 2.019.404 4.138.808 5.956 1.817.807.505 1.615 1.01 2.12 1.818 1.11 1.615.302 4.138-1.616 4.744-1.11.404-2.22.404-3.432.303-1.716-.101-3.432-.606-5.047-1.01 0 0-.101-.1-.202-.1zm8.48-10.296c-1.616 0-2.928-.303-4.442-.505-.404-.1-.707-.202-1.11-.303-.203-.1-.304-.202-.203-.403.606-2.12 1.11-4.14 1.616-6.26.1-.302.201-.403.504-.302 1.514.404 2.928.707 4.341 1.312.909.404 1.817 1.01 2.322 1.918 1.01 1.716 0 3.937-1.918 4.341-.404.101-.909.202-1.11.202z"/></defs></symbol><symbol viewBox="0 0 64 64" id="bitcoin-cash-bch-c" xmlns="http://www.w3.org/2000/svg"><defs><path id="ca" d="M32 64C14.327 64 0 49.673 0 32 0 14.327 14.327 0 32 0c17.673 0 32 14.327 32 32 0 17.673-14.327 32-32 32zM16.328 22.89c-.036.137-.036.137.16-.323.29 1.103.63 2.292.92 3.395.014.223.15.26.324.16.793-.227 1.672-.504 2.602-.694.929-.19 1.812.339 2.039 1.132 1.56 5.103 2.985 10.17 4.409 15.236.263.657-.056 1.303-.85 1.53-.655.263-1.448.49-2.154.667-.26.15-.347.2-.283.51.14.842.243 1.822.347 2.801.027.447.09.757.117 1.203 2.378-.68 4.67-1.31 6.962-1.941.1.173.064.31.114.396.367 1.636.87 3.308 1.374 4.98.013.224.063.31.373.247.966-.327 1.932-.654 2.948-.894.31-.063.26-.15.246-.373-.276-.88-.467-1.81-.743-2.689-.277-.879-.467-1.808-.744-2.688a94.34 94.34 0 0 1 2.465-.73c.223-.014.187.123.287.296.366 1.636.87 3.308 1.374 4.98.013.224.063.31.373.247.88-.277 1.895-.517 2.775-.794.533-.077.483-.163.37-.56-.454-1.585-.958-3.258-1.411-4.843-.064-.31.06-.497.37-.56 1.881-.74 3.713-1.567 5.382-2.877 1.286-.973 2.148-2.28 2.45-3.955.23-1.403.063-2.692-.29-4.104-.29-1.103-.804-2.192-1.527-3.045-1.047-1.012-2.29-1.565-3.779-1.744-.496-.06-.943-.033-1.439-.093.173-.1.21-.237.296-.287.543-.66 1.036-1.406 1.256-2.226.293-1.093.139-2.159-.151-3.261-.454-1.586-1.34-2.921-2.87-3.77a8.483 8.483 0 0 0-3.452-.779l-3.607.351c-.31.063-.447.027-.51-.283-.077-.533-.24-1.016-.404-1.5-.34-1.188-.68-2.378-1.07-3.653-.087.05-.137-.037-.224.013-1.102.29-2.068.617-3.084.857-.223.014-.26.15-.16.323l.34 1.19a53.236 53.236 0 0 0 1.034 3.79c-.037.137-.023.36-.11.41-.793.227-1.672.504-2.465.73a.756.756 0 0 0-.113-.396c-.454-1.585-.957-3.258-1.411-4.843-.013-.223-.063-.31-.373-.247-.966.327-1.846.604-2.862.844-.31.064-.346.2-.283.51.504 1.672.958 3.258 1.461 4.93.064.31.027.447-.283.51-1.103.29-2.155.667-3.258.957-1.102.29-2.155.667-3.258.957zm16.767 18.841c-.404-1.499-.844-2.861-1.197-4.274-.327-.966-.517-1.895-.844-2.861-.063-.31-.113-.397.196-.46 1.932-.654 3.951-1.357 6.01-1.391.943.033 1.886.066 2.719.509 1.752.835 2.31 3.4.964 4.87-.753.896-1.705 1.446-2.795 1.96-1.522.763-3.244 1.18-4.83 1.634 0 0-.136-.037-.223.013zm2.175-13.033c-1.386.8-2.662 1.19-4.06 1.767-.397.113-.707.176-1.103.29-.224.013-.36-.023-.374-.247-.53-2.118-1.097-4.1-1.714-6.169-.063-.31-.027-.446.283-.51 1.499-.403 2.861-.844 4.374-1.024.98-.104 2.059-.034 2.942.496 1.716.972 1.95 3.377.504 4.673-.296.287-.68.624-.852.724z"/></defs><g fill="none" fill-rule="evenodd"><mask id="cb" fill="#fff"><use xlink:href="#ca"/></mask><use fill="#4BCF51" xlink:href="#ca"/><g mask="url(#cb)"><path d="M0 0h64v64H0z"/></g></g></symbol>
<symbol width="64" height="64" viewBox="0 0 64 64">
    <defs>
        <path id="etherium" d="M32 64C14.327 64 0 49.673 0 32 0 14.327 14.327 0 32 0c17.673 0 32 14.327 32 32 0 17.673-14.327 32-32 32zm0-3c16.016 0 29-12.984 29-29S48.016 3 32 3 3 15.984 3 32s12.984 29 29 29zm15-32.095l-15-6.19-15 6.19L32 6l15 22.905zm-30 6.19l15 9.286 15-9.286L32 58 17 35.095zM47 32l-15 9.286L17 32l15-6.19L47 32z"/>
    </defs>
</symbol><symbol viewBox="0 0 64 64" ><defs><path id="colored"  d="M58.597 48.91H59C53.358 58.026 43.384 64 32 64S10.642 57.924 5 48.91h12.996V31.493L32 45.57l14.004-14.077v17.419h12.593zm-47.291-6.243h-9.59A32.003 32.003 0 0 1 0 32.28C0 14.46 14.334 0 32 0s32 14.46 32 32.28c0 3.666-.606 7.128-1.716 10.387h-9.59V15.784L32 36.659 11.306 15.784v26.883z"/></defs></symbol><symbol viewBox="0 0 64 64"><defs><path id="dash" d="M32 0C14.334 0 0 14.334 0 32s14.334 32 32 32 32-14.334 32-32S49.666 0 32 0zM12.82 34.625v-.202c.303-.808.606-1.615.909-2.524.303-.808.504-1.615.807-2.423.101-.202.202-.302.404-.302h13.628c0 .1-.101.302-.101.403l-1.514 4.543c-.101.303-.202.404-.606.404H13.224c-.101.1-.303.1-.404.1zm38.36-9.287c-1.312 4.037-2.625 8.075-3.937 12.214-.808 2.524-4.24 5.855-7.975 5.754-8.378-.101-16.757 0-25.035 0h-.504c.1-.303.202-.606.303-.808a72.383 72.383 0 0 0 1.413-4.34c.1-.404.303-.404.605-.404h22.612c.303 0 .505-.101.606-.404 1.11-3.533 2.322-7.066 3.432-10.6 0-.1.101-.201.101-.403h-23.52c0-.202.1-.303.1-.404.505-1.615 1.111-3.23 1.616-4.845.1-.303.202-.404.505-.404H46.94c.505 0 1.11.101 1.615.202 1.413.505 2.221 1.514 2.524 2.927 0 .101.1.202.1.303v1.212z"/></defs><g fill="none" fill-rule="evenodd"><mask id="eb" fill="#fff"><use xlink:href="#ea"/></mask><use fill="#3A74BE" fill-rule="nonzero" xlink:href="#ea"/><g fill="#FFF" mask="url(#eb)"><path d="M0 0h64v64H0z"/></g></g></symbol><symbol viewBox="0 0 64 64" id="dash-c" xmlns="http://www.w3.org/2000/svg"><defs><path id="fa" d="M32 0C14.334 0 0 14.334 0 32s14.334 32 32 32 32-14.334 32-32S49.666 0 32 0zM12.82 34.625v-.202c.303-.808.606-1.615.909-2.524.303-.808.504-1.615.807-2.423.101-.202.202-.302.404-.302h13.628c0 .1-.101.302-.101.403l-1.514 4.543c-.101.303-.202.404-.606.404H13.224c-.101.1-.303.1-.404.1zm38.36-9.287c-1.312 4.037-2.625 8.075-3.937 12.214-.808 2.524-4.24 5.855-7.975 5.754-8.378-.101-16.757 0-25.035 0h-.504c.1-.303.202-.606.303-.808a72.383 72.383 0 0 0 1.413-4.34c.1-.404.303-.404.605-.404h22.612c.303 0 .505-.101.606-.404 1.11-3.533 2.322-7.066 3.432-10.6 0-.1.101-.201.101-.403h-23.52c0-.202.1-.303.1-.404.505-1.615 1.111-3.23 1.616-4.845.1-.303.202-.404.505-.404H46.94c.505 0 1.11.101 1.615.202 1.413.505 2.221 1.514 2.524 2.927 0 .101.1.202.1.303v1.212z"/></defs><g fill="none" fill-rule="evenodd"><mask id="fb" fill="#fff"><use xlink:href="#fa"/></mask><use fill="#3A74BE" fill-rule="nonzero" xlink:href="#fa"/><g mask="url(#fb)"><path d="M0 0h64v64H0z"/></g></g></symbol><symbol viewBox="0 0 64 64"><defs><path id="eos-invert" d="M32 64C14.327 64 0 49.673 0 32 0 14.327 14.327 0 32 0c17.673 0 32 14.327 32 32 0 17.673-14.327 32-32 32zm-1.267-45.02l-5.679 9.582-1.795-5.834 7.474-10.276v6.527zm2.534-6.528l7.474 10.276-1.795 5.834-5.679-9.583v-6.527zm-3.256 32.221l-3.95-12.838L32 21.813l5.939 10.022-3.95 12.838H30.01zm.78 2.535h2.418L32 51.136l-1.209-3.928zm12.237 0l-8.83 5.406 1.663-5.406h7.167zm-6.387-2.535l3.044-9.893 5.862 9.893h-8.906zm-15.669 2.535h7.167l1.664 5.406-8.83-5.406zm3.343-12.428l3.044 9.893h-8.906l5.862-9.893zm19.998 2.838l-3.622-6.11 1.27-4.126 2.352 10.236zm-21.004-6.11l-3.622 6.11 2.352-10.236 1.27 4.126zm9.217 25.09c.055-.024.108-.053.159-.086l15.501-9.49c.465-.285.696-.834.574-1.365L43.374 22.21a1.267 1.267 0 0 0-.21-.461L33.042 7.833a1.259 1.259 0 0 0-.504-.426 1.261 1.261 0 0 0-1.076 0 1.259 1.259 0 0 0-.504.426L20.836 21.75a1.27 1.27 0 0 0-.21.461L15.24 45.657c-.122.53.109 1.08.574 1.364l15.501 9.491a1.266 1.266 0 0 0 1.211.087z"/></defs></symbol><symbol xmlns="http://www.w3.org/2000/svg" xmlns:xlink="http://www.w3.org/1999/xlink" width="64" height="64" viewBox="0 0 64 64">
    <defs>
        <path id="eos-invert-c" d="M32 64C14.327 64 0 49.673 0 32 0 14.327 14.327 0 32 0c17.673 0 32 14.327 32 32 0 17.673-14.327 32-32 32zm-1.267-45.02l-5.679 9.582-1.795-5.834 7.474-10.276v6.527zm2.534-6.528l7.474 10.276-1.795 5.834-5.679-9.583v-6.527zm-3.256 32.221l-3.95-12.838L32 21.813l5.939 10.022-3.95 12.838H30.01zm.78 2.535h2.418L32 51.136l-1.209-3.928zm12.237 0l-8.83 5.406 1.663-5.406h7.167zm-6.387-2.535l3.044-9.893 5.862 9.893h-8.906zm-15.669 2.535h7.167l1.664 5.406-8.83-5.406zm3.343-12.428l3.044 9.893h-8.906l5.862-9.893zm19.998 2.838l-3.622-6.11 1.27-4.126 2.352 10.236zm-21.004-6.11l-3.622 6.11 2.352-10.236 1.27 4.126zm9.217 25.09c.055-.024.108-.053.159-.086l15.501-9.49c.465-.285.696-.834.574-1.365L43.374 22.21a1.267 1.267 0 0 0-.21-.461L33.042 7.833a1.259 1.259 0 0 0-.504-.426 1.261 1.261 0 0 0-1.076 0 1.259 1.259 0 0 0-.504.426L20.836 21.75c-.1.138-.172.295-.21.461L15.24 45.657c-.122.53.109 1.08.574 1.364l15.501 9.491a1.266 1.266 0 0 0 1.211.087z"/>
    </defs>
    <g fill="none" fill-rule="evenodd">
        <mask id="b" fill="#fff">
            <use xlink:href="#eos-invert-c"/>
        </mask>
        <use fill="#000" fill-rule="nonzero" xlink:href="#eos-invert-c"/>
        <g fill="#D9D9D9" mask="url(#b)">
            <path d="M0 0h64v64H0z"/>
        </g>
    </g>
</symbol>
<symbol viewBox="0 0 64 64" id="etherium-classic-etc-c" xmlns="http://www.w3.org/2000/svg"><g fill="none"><path fill="#0C8312" d="M32.11 18.905V.788l18.915 28.258zm0 26.092v18.117l18.915-28.259zm0-11.323v-11.52L50.635 32z"/><path fill="#034C03" d="M32.11 42.043v-8.37L50.635 32z"/><path fill="#3CB93C" d="M32.11 18.905V.788L13.195 29.046zm0 26.092v18.117L13.195 34.855zm0-11.323v-11.52L13.585 32z"/><path fill="#166816" d="M32.11 42.043v-8.37L13.585 32z"/></g></symbol><symbol viewBox="0 0 64 64"><defs><path id="iota" d="M31.972 0C14.322 0 0 14.322 0 31.972c0 17.65 14.322 31.972 31.972 31.972 17.65 0 31.972-14.323 31.972-31.972C63.944 14.322 49.62 0 31.972 0zM44.77 20.805a2.307 2.307 0 1 1 4.488 1.07 2.307 2.307 0 0 1-4.488-1.07zm-.334 5.554a1.866 1.866 0 1 1 3.638.828 1.866 1.866 0 0 1-3.638-.828zm-2.272 9.537a1.201 1.201 0 1 1 .556-2.337 1.201 1.201 0 0 1-.556 2.337zm.748 4.705a.886.886 0 1 1-1.612-.736.886.886 0 0 1 1.612.736zm-2.151-12.63a2.01 2.01 0 1 1 0-4.02 2.01 2.01 0 0 1 0 4.02zm2.89 10.303a1.015 1.015 0 1 1 1.839.859 1.015 1.015 0 0 1-1.839-.86zm.46-5.37a1.723 1.723 0 1 1 .799-3.352 1.723 1.723 0 0 1-.799 3.352zm-2.575-10.273a2.177 2.177 0 1 1 0-4.354 2.177 2.177 0 0 1 0 4.354zm-.609-11.263a2.692 2.692 0 1 1 0 5.384 2.692 2.692 0 0 1 0-5.384zM39.359 29.09a1.402 1.402 0 1 1 .04 2.803 1.402 1.402 0 0 1-.04-2.803zm-2.161 5.967a1.224 1.224 0 1 1 0-2.449 1.224 1.224 0 0 1 0 2.449zm1.143 3.715a.973.973 0 1 1-1.893-.451.973.973 0 0 1 1.893.45zm-3.678-3.715a1.136 1.136 0 1 1 .05 2.271 1.136 1.136 0 0 1-.05-2.271zm-1.34-11.098a1.05 1.05 0 1 1-.635-2 1.05 1.05 0 0 1 .635 2zm2.154 5.025a1.136 1.136 0 1 1-1.164-1.95 1.136 1.136 0 0 1 1.164 1.95zm-.173-5.459a.973.973 0 1 1 .556 1.866.973.973 0 0 1-.556-1.866zm1.15-3.113a.822.822 0 1 1 .127 1.64.822.822 0 0 1-.128-1.64zm-1.852-1.76a.886.886 0 1 1 .138 1.768.886.886 0 0 1-.138-1.768zm-2.544-1.499a1.015 1.015 0 1 1 .159 2.023 1.015 1.015 0 0 1-.159-2.023zm.6 9.22a1.224 1.224 0 1 1-2.12 1.225 1.224 1.224 0 0 1 2.12-1.225zm-9.115 9.208a1.05 1.05 0 1 1 1.524 1.442 1.05 1.05 0 0 1-1.524-1.442zm.078-2.916a.974.974 0 1 1 1.415 1.339.974.974 0 0 1-1.415-1.339zm.619 6.125a1.201 1.201 0 1 1 1.745 1.651 1.201 1.201 0 0 1-1.745-1.651zm4.085-10.792a1.402 1.402 0 1 1-1.407-2.425A1.402 1.402 0 0 1 28.325 28zm.391 4.715a1.136 1.136 0 1 1-1.984-1.107 1.136 1.136 0 0 1 1.984 1.107zm-2.86 9.26a1.723 1.723 0 1 1 2.504 2.367 1.723 1.723 0 0 1-2.503-2.367zm2.04-5.393a1.224 1.224 0 1 1 1.224-2.12 1.224 1.224 0 0 1-1.223 2.12zm1.212 1.782a1.402 1.402 0 1 1 2.444 1.374 1.402 1.402 0 0 1-2.444-1.374zM30.9 21.655a1.201 1.201 0 1 1-2.292.719 1.201 1.201 0 0 1 2.292-.72zm-2.227-5.696a1.456 1.456 0 1 1 .227 2.902 1.456 1.456 0 0 1-.227-2.902zm-1.338 5.505a1.723 1.723 0 1 1-3.289 1.03 1.723 1.723 0 0 1 3.29-1.03zm-2.69-5.874a1.576 1.576 0 1 1 .285 3.14 1.576 1.576 0 0 1-.285-3.14zm.094 11.242a2.01 2.01 0 1 1-3.482 2.01 2.01 2.01 0 0 1 3.482-2.01zm-4.351 7.771a.822.822 0 1 1 1.338-.955.822.822 0 0 1-1.338.955zm.633 2.713a.886.886 0 1 1-1.003-1.46.886.886 0 0 1 1.003 1.46zm1.739-15.182a1.866 1.866 0 1 1-3.565 1.101 1.866 1.866 0 0 1 3.565-1.1zm-2.724-6.115a1.949 1.949 0 1 1 .347 3.883 1.949 1.949 0 0 1-.347-3.883zm-4.825 6.503a2.307 2.307 0 1 1 1.347 4.413 2.307 2.307 0 0 1-1.347-4.413zm-1.257 13.453a2.692 2.692 0 1 1-2.692-4.663 2.692 2.692 0 0 1 2.692 4.663zm4.975-4.17a2.177 2.177 0 1 1-2.176-3.77 2.177 2.177 0 0 1 2.176 3.77zm.834 8.234a1.015 1.015 0 1 1 1.654-1.175 1.015 1.015 0 0 1-1.654 1.175zm.657 3.529a1.456 1.456 0 1 1 2.385-1.67 1.456 1.456 0 0 1-2.385 1.67zm1.695 3.672a1.576 1.576 0 1 1 2.598-1.784 1.576 1.576 0 0 1-2.598 1.784zm5.386 4.28a1.949 1.949 0 1 1-2.207-3.212 1.949 1.949 0 0 1 2.207 3.213zm3.934-3.355a1.866 1.866 0 1 1-2.728-2.546 1.866 1.866 0 0 1 2.728 2.546zm.368-6.627a2.01 2.01 0 1 1 3.482 2.01 2.01 2.01 0 0 1-3.482-2.01zm4.292 10.316a2.307 2.307 0 1 1-3.382-3.138 2.307 2.307 0 0 1 3.382 3.138zm3.716-4.797a2.177 2.177 0 1 1-3.77-2.177 2.177 2.177 0 0 1 3.77 2.177zm.65-5.732a.822.822 0 1 1-1.483-.709.822.822 0 0 1 1.484.709zm.535-3.999a1.05 1.05 0 1 1-2.041-.486 1.05 1.05 0 0 1 2.04.486zM46.1 49.984a2.692 2.692 0 1 1-4.663-2.692 2.692 2.692 0 0 1 4.663 2.692zm2.11-13.17a1.455 1.455 0 1 1-2.627-1.254 1.455 1.455 0 0 1 2.627 1.255zm2.333-3.303a1.576 1.576 0 1 1-2.845-1.358 1.576 1.576 0 0 1 2.845 1.358zm1.933-4.207a1.949 1.949 0 1 1-3.517-1.68 1.949 1.949 0 0 1 3.517 1.68z"/></defs><g fill="none" fill-rule="evenodd"><mask id="jb" fill="#fff"><use xlink:href="#ja"/></mask><use fill="#313131" fill-rule="nonzero" xlink:href="#ja"/><g mask="url(#jb)"><path d="M0 0h64v64H0z"/></g></g></symbol><symbol viewBox="0 0 64 64" id="iota-c" xmlns="http://www.w3.org/2000/svg"><defs><path id="iota-c" d="M31.972 0C14.322 0 0 14.322 0 31.972c0 17.65 14.322 31.972 31.972 31.972 17.65 0 31.972-14.323 31.972-31.972C63.944 14.322 49.62 0 31.972 0zM44.77 20.805a2.307 2.307 0 1 1 4.488 1.07 2.307 2.307 0 0 1-4.488-1.07zm-.334 5.554a1.866 1.866 0 1 1 3.638.828 1.866 1.866 0 0 1-3.638-.828zm-2.272 9.537a1.201 1.201 0 1 1 .556-2.337 1.201 1.201 0 0 1-.556 2.337zm.748 4.705a.886.886 0 1 1-1.612-.736.886.886 0 0 1 1.612.736zm-2.151-12.63a2.01 2.01 0 1 1 0-4.02 2.01 2.01 0 0 1 0 4.02zm2.89 10.303a1.015 1.015 0 1 1 1.839.859 1.015 1.015 0 0 1-1.839-.86zm.46-5.37a1.723 1.723 0 1 1 .799-3.352 1.723 1.723 0 0 1-.799 3.352zm-2.575-10.273a2.177 2.177 0 1 1 0-4.354 2.177 2.177 0 0 1 0 4.354zm-.609-11.263a2.692 2.692 0 1 1 0 5.384 2.692 2.692 0 0 1 0-5.384zM39.359 29.09a1.402 1.402 0 1 1 .04 2.803 1.402 1.402 0 0 1-.04-2.803zm-2.161 5.967a1.224 1.224 0 1 1 0-2.449 1.224 1.224 0 0 1 0 2.449zm1.143 3.715a.973.973 0 1 1-1.893-.451.973.973 0 0 1 1.893.45zm-3.678-3.715a1.136 1.136 0 1 1 .05 2.271 1.136 1.136 0 0 1-.05-2.271zm-1.34-11.098a1.05 1.05 0 1 1-.635-2 1.05 1.05 0 0 1 .635 2zm2.154 5.025a1.136 1.136 0 1 1-1.164-1.95 1.136 1.136 0 0 1 1.164 1.95zm-.173-5.459a.973.973 0 1 1 .556 1.866.973.973 0 0 1-.556-1.866zm1.15-3.113a.822.822 0 1 1 .127 1.64.822.822 0 0 1-.128-1.64zm-1.852-1.76a.886.886 0 1 1 .138 1.768.886.886 0 0 1-.138-1.768zm-2.544-1.499a1.015 1.015 0 1 1 .159 2.023 1.015 1.015 0 0 1-.159-2.023zm.6 9.22a1.224 1.224 0 1 1-2.12 1.225 1.224 1.224 0 0 1 2.12-1.225zm-9.115 9.208a1.05 1.05 0 1 1 1.524 1.442 1.05 1.05 0 0 1-1.524-1.442zm.078-2.916a.974.974 0 1 1 1.415 1.339.974.974 0 0 1-1.415-1.339zm.619 6.125a1.201 1.201 0 1 1 1.745 1.651 1.201 1.201 0 0 1-1.745-1.651zm4.085-10.792a1.402 1.402 0 1 1-1.407-2.425A1.402 1.402 0 0 1 28.325 28zm.391 4.715a1.136 1.136 0 1 1-1.984-1.107 1.136 1.136 0 0 1 1.984 1.107zm-2.86 9.26a1.723 1.723 0 1 1 2.504 2.367 1.723 1.723 0 0 1-2.503-2.367zm2.04-5.393a1.224 1.224 0 1 1 1.224-2.12 1.224 1.224 0 0 1-1.223 2.12zm1.212 1.782a1.402 1.402 0 1 1 2.444 1.374 1.402 1.402 0 0 1-2.444-1.374zM30.9 21.655a1.201 1.201 0 1 1-2.292.719 1.201 1.201 0 0 1 2.292-.72zm-2.227-5.696a1.456 1.456 0 1 1 .227 2.902 1.456 1.456 0 0 1-.227-2.902zm-1.338 5.505a1.723 1.723 0 1 1-3.289 1.03 1.723 1.723 0 0 1 3.29-1.03zm-2.69-5.874a1.576 1.576 0 1 1 .285 3.14 1.576 1.576 0 0 1-.285-3.14zm.094 11.242a2.01 2.01 0 1 1-3.482 2.01 2.01 2.01 0 0 1 3.482-2.01zm-4.351 7.771a.822.822 0 1 1 1.338-.955.822.822 0 0 1-1.338.955zm.633 2.713a.886.886 0 1 1-1.003-1.46.886.886 0 0 1 1.003 1.46zm1.739-15.182a1.866 1.866 0 1 1-3.565 1.101 1.866 1.866 0 0 1 3.565-1.1zm-2.724-6.115a1.949 1.949 0 1 1 .347 3.883 1.949 1.949 0 0 1-.347-3.883zm-4.825 6.503a2.307 2.307 0 1 1 1.347 4.413 2.307 2.307 0 0 1-1.347-4.413zm-1.257 13.453a2.692 2.692 0 1 1-2.692-4.663 2.692 2.692 0 0 1 2.692 4.663zm4.975-4.17a2.177 2.177 0 1 1-2.176-3.77 2.177 2.177 0 0 1 2.176 3.77zm.834 8.234a1.015 1.015 0 1 1 1.654-1.175 1.015 1.015 0 0 1-1.654 1.175zm.657 3.529a1.456 1.456 0 1 1 2.385-1.67 1.456 1.456 0 0 1-2.385 1.67zm1.695 3.672a1.576 1.576 0 1 1 2.598-1.784 1.576 1.576 0 0 1-2.598 1.784zm5.386 4.28a1.949 1.949 0 1 1-2.207-3.212 1.949 1.949 0 0 1 2.207 3.213zm3.934-3.355a1.866 1.866 0 1 1-2.728-2.546 1.866 1.866 0 0 1 2.728 2.546zm.368-6.627a2.01 2.01 0 1 1 3.482 2.01 2.01 2.01 0 0 1-3.482-2.01zm4.292 10.316a2.307 2.307 0 1 1-3.382-3.138 2.307 2.307 0 0 1 3.382 3.138zm3.716-4.797a2.177 2.177 0 1 1-3.77-2.177 2.177 2.177 0 0 1 3.77 2.177zm.65-5.732a.822.822 0 1 1-1.483-.709.822.822 0 0 1 1.484.709zm.535-3.999a1.05 1.05 0 1 1-2.041-.486 1.05 1.05 0 0 1 2.04.486zM46.1 49.984a2.692 2.692 0 1 1-4.663-2.692 2.692 2.692 0 0 1 4.663 2.692zm2.11-13.17a1.455 1.455 0 1 1-2.627-1.254 1.455 1.455 0 0 1 2.627 1.255zm2.333-3.303a1.576 1.576 0 1 1-2.845-1.358 1.576 1.576 0 0 1 2.845 1.358zm1.933-4.207a1.949 1.949 0 1 1-3.517-1.68 1.949 1.949 0 0 1 3.517 1.68z"/></defs><g fill="none" fill-rule="evenodd"><mask id="kb" fill="#fff"><use xlink:href="#iota-c"/></mask><use fill="#313131" fill-rule="nonzero" xlink:href="#iota-c"/><g mask="url(#kb)"><path d="M0 0h64v64H0z"/></g></g></symbol>
<symbol viewBox="0 0 64 64">
<defs><path id="litecoin-ltc" d="M31.9 64C14.132 63.897-.1 49.642 0 31.95 0 14.154 14.437-.1 32.1 0c17.767.102 32 14.458 31.9 32.152-.202 17.693-14.537 31.949-32.1 31.847zm28.97-31.95c0-16.075-12.92-29.016-28.97-29.016-15.95 0-28.871 12.941-28.871 28.915 0 16.076 12.92 29.017 28.971 29.017 15.95 0 28.87-12.941 28.87-28.915zm-4.34 0c-.202 13.65-11.205 24.67-24.732 24.57C18.07 56.417 7.168 45.295 7.37 31.747 7.571 18.098 18.574 7.28 32 7.381c13.628.101 24.53 11.122 24.53 24.67zm-26.145 8.797v-.304c.706-2.73 1.312-5.358 2.019-8.088.1-.202.303-.506.605-.607.707-.303 1.414-.606 2.12-.808 1.615-.405 2.524-1.315 2.726-2.933.1-.707.404-1.415.605-2.224-1.716.708-3.23 1.315-4.845 1.921 1.11-4.347 2.12-8.391 3.23-12.638H27.66c-.605 0-.807.202-1.01.809l-4.24 15.772c-.1.304-.404.607-.605.708-.909.404-1.918.708-2.827 1.112-.202.101-.505.202-.505.303-.403 1.315-.807 2.73-1.312 4.247 1.413-.607 2.625-1.112 4.038-1.618-.909 3.539-1.817 6.976-2.726 10.414h26.045c.504 0 .706-.101.807-.607.202-1.01.504-2.022.807-2.932.202-.708.303-1.415.505-2.224l-16.252-.303z"/></defs></symbol>
<symbol viewBox="0 0 64 64" id="litecoin-ltc-c" xmlns="http://www.w3.org/2000/svg"><defs><path id="ma" d="M31.9 64C14.132 63.897-.1 49.642 0 31.95 0 14.154 14.437-.1 32.1 0c17.767.102 32 14.458 31.9 32.152-.202 17.693-14.537 31.949-32.1 31.847zm28.97-31.95c0-16.075-12.92-29.016-28.97-29.016-15.95 0-28.871 12.941-28.871 28.915 0 16.076 12.92 29.017 28.971 29.017 15.95 0 28.87-12.941 28.87-28.915zm-4.34 0c-.202 13.65-11.205 24.67-24.732 24.57C18.07 56.417 7.168 45.295 7.37 31.747 7.571 18.098 18.574 7.28 32 7.381c13.628.101 24.53 11.122 24.53 24.67zm-26.145 8.797v-.304c.706-2.73 1.312-5.358 2.019-8.088.1-.202.303-.506.605-.607.707-.303 1.414-.606 2.12-.808 1.615-.405 2.524-1.315 2.726-2.933.1-.707.404-1.415.605-2.224-1.716.708-3.23 1.315-4.845 1.921 1.11-4.347 2.12-8.391 3.23-12.638H27.66c-.605 0-.807.202-1.01.809l-4.24 15.772c-.1.304-.404.607-.605.708-.909.404-1.918.708-2.827 1.112-.202.101-.505.202-.505.303-.403 1.315-.807 2.73-1.312 4.247 1.413-.607 2.625-1.112 4.038-1.618-.909 3.539-1.817 6.976-2.726 10.414h26.045c.504 0 .706-.101.807-.607.202-1.01.504-2.022.807-2.932.202-.708.303-1.415.505-2.224l-16.252-.303z"/></defs><g fill="none" fill-rule="evenodd"><mask id="mb" fill="#fff"><use xlink:href="#ma"/></mask><use fill="#C0C0C0" fill-rule="nonzero" xlink:href="#ma"/><g mask="url(#mb)"><path d="M0 0h64v64H0z"/></g></g></symbol><symbol viewBox="0 0 170 46" id="logo" xmlns="http://www.w3.org/2000/svg"><defs>
<path id="na" d="M47.672 13.325c-.216.586-.61 1.05-1.208 1.407-.73.44-1.503.654-2.371.654-1.147 0-2.112-.345-2.946-1.057-.69-.585-1.118-1.323-1.3-2.241h12.366v1.237h-4.54zM41.137 5.91c.829-.82 1.785-1.218 2.922-1.218 1.157 0 2.11.395 2.905 1.2.442.457.772.955.986 1.504h-7.81a4.49 4.49 0 0 1 .997-1.486zm-11.645 7.944c-.694 1.044-1.567 1.531-2.745 1.531-1.295 0-2.214-.529-2.888-1.659-.583-.985-.88-2.223-.88-3.688 0-1.438.308-2.676.913-3.684.675-1.135 1.582-1.662 2.855-1.662 1.178 0 2.05.486 2.745 1.532.678 1.02 1.02 2.3 1.02 3.814 0 1.512-.342 2.797-1.02 3.816zm-16.618.01c-.78 1.023-1.844 1.522-3.25 1.522-1.43 0-2.501-.499-3.286-1.528-.753-.97-1.117-2.22-1.117-3.82 0-1.555.393-2.829 1.206-3.894.746-.978 1.79-1.451 3.196-1.451 1.406 0 2.47.496 3.25 1.518.752.998 1.12 2.249 1.12 3.827 0 1.58-.368 2.83-1.12 3.825zM67.696 2.006C66.28.791 64.5.175 62.406.175c-1.535 0-2.97.36-4.265 1.077-.25.139-.487.286-.706.445V.628h-5.222v3.969c-.265-.46-.56-.903-.896-1.318C49.567 1.102 47.127 0 44.059 0c-3.048 0-5.519 1.067-7.335 3.169a9.74 9.74 0 0 0-1.68 2.763C34.597 4.66 33.93 3.56 33.049 2.64 31.482 1.002 29.524.175 27.228.175a8.08 8.08 0 0 0-3.537.805c-.248.12-.483.25-.711.392V.628h-5.22v3.825a9.132 9.132 0 0 0-1.551-1.889C14.402.864 12.179.001 9.606.001 7.035 0 4.81.863 3 2.566c-1.99 1.885-3 4.4-3 7.473 0 3.076 1.01 5.59 3.002 7.477 1.81 1.7 4.033 2.565 6.604 2.565 2.574 0 4.796-.866 6.606-2.568a9.295 9.295 0 0 0 1.547-1.9v11.14h5.22v-8.057c.25.15.513.288.788.413a8.663 8.663 0 0 0 3.599.76c2.237 0 4.165-.775 5.727-2.301.91-.894 1.581-1.983 2.023-3.25a9.723 9.723 0 0 0 1.607 2.589c1.816 2.106 4.286 3.173 7.336 3.173 2.11 0 3.992-.527 5.593-1.566a7.982 7.982 0 0 0 2.561-2.66v3.597h5.222V8.504c0-1.29.375-2.267 1.154-2.98.715-.656 1.57-.971 2.61-.971 1.058 0 1.91.314 2.606.967.78.717 1.16 1.694 1.16 2.984v10.947h5.219V7.874c0-2.467-.833-4.44-2.488-5.867z"/><path id="nc" d="M36.763 0l-8.19 11.337 8.19 11.335h-7.2l-4.59-6.352-4.589 6.352h-7.2l8.189-11.335-3.942-5.458H5.812v2.518h9.749v5.88H5.812v8.396H0V0h20.384l4.59 6.353L29.563 0h7.199zm67.207 25.602h.526l-1.127 2.697c-.13.31-.307.722-.768.722-.113 0-.258-.014-.397-.042v-.393a.946.946 0 0 0 .284.05c.231 0 .306-.073.488-.568l-1.041-2.466h.548l.746 1.92.74-1.92zm-3.5 1.156v.185h-2.046c.038.505.306.768.8.768.387 0 .612-.152.698-.485h.505c-.13.536-.59.86-1.225.86-.8 0-1.283-.486-1.283-1.268 0-.777.516-1.268 1.316-1.268.86 0 1.235.528 1.235 1.208zm-.494-.19c-.033-.407-.306-.643-.752-.643-.435 0-.703.213-.784.643h1.536zm-4.714-1.027c.387 0 .714.171.822.435.059.144.07.213.07.51v1.54h-.484v-1.471c0-.463-.16-.63-.553-.63-.316 0-.574.153-.66.37-.054.135-.06.181-.06.463v1.268h-.488v-2.424h.489v.323c.285-.291.494-.384.864-.384zm-3.124 1.277c0 .791-.478 1.268-1.278 1.268-.79 0-1.272-.477-1.272-1.268 0-.8.483-1.277 1.272-1.277.8 0 1.278.477 1.278 1.277zm-.515-.018c0-.555-.285-.875-.763-.875-.472 0-.757.32-.757.893 0 .56.285.893.757.893.483 0 .763-.333.763-.911zm-4.703-1.26c.634 0 .854.348.854.833v1.652h-.488v-1.582c0-.361-.145-.519-.473-.519-.247 0-.516.144-.58.338-.064.111-.07.204-.07.477v1.286h-.488v-1.523c0-.444-.087-.578-.414-.578-.295 0-.558.153-.66.398-.043.102-.038.144-.038.408v1.295h-.488v-2.424h.488v.305c.295-.273.494-.366.816-.366.328 0 .527.102.704.366.295-.273.504-.366.837-.366zm-7.709 1.166c.462.158.59.306.59.602 0 .463-.45.777-1.121.777-.725 0-1.128-.305-1.128-.851h.505c.01.338.198.476.633.476.365 0 .602-.138.602-.35 0-.108-.049-.154-.269-.237l-.88-.324c-.355-.13-.494-.292-.494-.555 0-.417.418-.704 1.041-.704.57 0 1.037.246 1.037.773h-.484c-.01-.264-.198-.389-.574-.389-.306 0-.527.116-.527.287 0 .084.07.153.242.213l.827.282zm-3.167.051v.185h-2.046c.038.505.306.768.8.768.387 0 .613-.152.698-.485h.505c-.13.536-.59.86-1.224.86-.8 0-1.284-.486-1.284-1.268 0-.777.516-1.268 1.316-1.268.86 0 1.235.528 1.235 1.208zm-.494-.19c-.032-.407-.306-.643-.752-.643-.435 0-.703.213-.784.643h1.536zm-3.398-.966l-1.069.901 1.096 1.523h-.591l-.832-1.235-.382.305v.93h-.488v-3.313h.488v1.865l1.144-.976h.634zm-4.059 2.11c.022 0 .06-.01.14-.01v.315a.972.972 0 0 1-.295.051c-.29 0-.42-.12-.446-.366a1.35 1.35 0 0 1-.972.384c-.542 0-.918-.291-.918-.717 0-.791 1.15-.814 1.847-.874v-.12c0-.325-.167-.45-.601-.45-.403 0-.602.125-.623.43h-.505c.022-.235.054-.347.161-.476.183-.222.516-.338.967-.338.633 0 1.08.162 1.08.773v1.143c0 .176.037.254.165.254zm-.65-.894c-.606.074-.864.116-1.02.185-.198.06-.295.19-.295.334 0 .236.188.374.516.374.44 0 .8-.254.8-.564v-.329zm-4.439-1.277c.634 0 .854.348.854.833v1.652h-.489v-1.582c0-.361-.145-.519-.472-.519-.247 0-.516.144-.58.338-.065.111-.07.204-.07.477v1.286h-.489v-1.523c0-.444-.086-.578-.413-.578-.295 0-.558.153-.66.398-.043.102-.038.144-.038.408v1.295h-.488v-2.424h.488v.305c.295-.273.494-.366.816-.366.328 0 .527.102.704.366.295-.273.504-.366.837-.366zm-15.045 1.98l.741-1.92h.526L48.1 28.3c-.13.31-.306.722-.768.722-.113 0-.258-.014-.397-.042v-.393a.946.946 0 0 0 .284.05c.231 0 .306-.073.489-.568l-1.042-2.466h.548l.746 1.92zm-2.217-.763v.185h-2.045c.037.505.306.768.8.768.386 0 .612-.152.698-.485h.505c-.13.536-.591.86-1.225.86-.8 0-1.283-.486-1.283-1.268 0-.777.516-1.268 1.316-1.268.859 0 1.234.528 1.234 1.208zm-.494-.19c-.032-.407-.305-.643-.751-.643-.435 0-.704.213-.784.643h1.535zm-4.17-1.027c.386 0 .713.171.82.435.06.144.07.213.07.51v1.54h-.483v-1.471c0-.463-.161-.63-.553-.63-.316 0-.574.153-.66.37-.054.135-.06.181-.06.463v1.268h-.488v-2.424h.489v.323c.284-.291.494-.384.864-.384zm-2.583 1.277c0 .791-.478 1.268-1.278 1.268-.789 0-1.272-.477-1.272-1.268 0-.8.483-1.277 1.272-1.277.8 0 1.278.477 1.278 1.277zm-.515-.018c0-.555-.285-.875-.763-.875-.472 0-.757.32-.757.893 0 .56.285.893.757.893.483 0 .763-.333.763-.911zm-4.16-1.259c.633 0 .853.348.853.833v1.652h-.488v-1.582c0-.361-.145-.519-.473-.519-.247 0-.515.144-.58.338-.064.111-.07.204-.07.477v1.286h-.488v-1.523c0-.444-.086-.578-.414-.578-.295 0-.558.153-.66.398-.043.102-.038.144-.038.408v1.295h-.488v-2.424h.488v.305c.295-.273.494-.366.816-.366.328 0 .527.102.704.366.295-.273.505-.366.837-.366zm-7.302 0c.387 0 .714.171.822.435.059.144.07.213.07.51v1.54h-.484v-1.471c0-.463-.161-.63-.553-.63-.316 0-.574.153-.66.37-.054.135-.06.181-.06.463v1.268h-.488v-2.424h.489v.323c.284-.291.494-.384.864-.384zm-2.582 1.217v.185H21.89c.038.505.306.768.8.768.387 0 .613-.152.698-.485h.505c-.129.536-.59.86-1.224.86-.8 0-1.283-.486-1.283-1.268 0-.777.515-1.268 1.315-1.268.86 0 1.235.528 1.235 1.208zm-.494-.19c-.032-.407-.306-.643-.752-.643-.435 0-.703.213-.783.643h1.535zm-4.187-1.027c.698 0 .907.348.907.893v1.592h-.483v-1.5c0-.434-.15-.6-.531-.6-.247 0-.452.082-.596.254-.113.134-.145.254-.145.56v1.286h-.489v-3.313h.489v1.152a1.17 1.17 0 0 1 .848-.324zm-2.888.06h.515l-.848 2.425h-.488l-.543-1.865-.553 1.865h-.494l-.81-2.424h.536l.403 1.42c.043.143.07.213.118.467.048-.254.075-.324.118-.467l.42-1.42h.552l.403 1.401c.043.144.059.19.118.463.059-.264.07-.31.118-.463l.435-1.401zM112.96 2.87a2.872 2.872 0 0 1-.816 2.022c-.26.266-.557.471-.893.616a2.67 2.67 0 0 1-1.073.218c-.506 0-.97-.128-1.394-.382a2.872 2.872 0 0 1-1.376-2.474c0-.513.124-.987.372-1.426a2.799 2.799 0 0 1 1.01-1.04 2.645 2.645 0 0 1 1.388-.382c.497 0 .96.127 1.388.382.428.255.767.602 1.018 1.042.25.44.376.914.376 1.424zm-.412 0c0-.442-.107-.85-.32-1.226-.212-.374-.5-.67-.863-.888a2.27 2.27 0 0 0-1.187-.326 2.26 2.26 0 0 0-1.184.326 2.362 2.362 0 0 0-.859.89 2.47 2.47 0 0 0-.315 1.224c0 .442.105.852.315 1.23.21.377.496.674.859.891a2.25 2.25 0 0 0 1.184.326c.428 0 .823-.11 1.187-.328a2.452 2.452 0 0 0 1.183-2.12zm-3.517 1.613V1.232h1.32c.363 0 .644.06.84.182.2.122.299.363.299.724a.886.886 0 0 1-.084.421.865.865 0 0 1-.314.297c.146.076.242.17.287.282.044.112.07.276.076.49.006.215.016.38.031.492a.906.906 0 0 0 .146.363h-.584a2.42 2.42 0 0 1-.058-.544 3.832 3.832 0 0 0-.026-.474.35.35 0 0 0-.161-.245c-.095-.063-.255-.095-.48-.095h-.814v1.358h-.478zm.478-2.797v.985h.799c.175 0 .313-.016.416-.049a.388.388 0 0 0 .22-.153.537.537 0 0 0 .068-.292c0-.19-.05-.32-.148-.388-.098-.069-.274-.103-.527-.103h-.828z"/><path id="ne" d="M6.236 3.29c-.33.568-.645 1.032-.317 1.69.181.36.745.728.872.795.466.23.903.452.589.452-.967 0 .177.884-1.246-.119-.237-.167-.717-.617-.759-1.294-.05-.77.647-1.398.861-1.523m.829 4.975c-.006-.463 0-.976.238-1.31.026-.036.05-.074.079-.12.14-.225.311-.499.811-.86-1.184-.424-1.845-.99-1.937-1.537-.246-1.46 3.672-2.798 3.62-2.927-.05-.13-1.65.05-2.087.18-2.216.518-3.787 1.917-3.787 3.68 0 1.48 1.764 2.43 3.063 2.894m14.021-1.262c-.85.856-2.127.738-2.127.738 1.47-.583.388-1.05.735-.97.35.074.619-.04 1.664-.39 1.044-.351.58-.234-.272.622m.89-1.633c-.542.079-.656.116-1.121.116-.149 0-.453.087-.79.204-.274.37-.575.695-.902.973a4.86 4.86 0 0 1-1.49.868c.152.12.347.255.593.404.889.544 1.738.778 3.208-.427 1.468-1.206 1.931-2.138 1.7-2.293-.232-.155-.656.079-1.198.155m-5.552-3.645a22.232 22.232 0 0 0-7.26 3.86 3.761 3.761 0 0 1-1-.117 23.125 23.125 0 0 1 7.414-4.218c.287.125.582.297.846.475m9.78 11.68c-.927 5.603-8.772 7.884-10.393 9.853-1.062-.676 5.11-6.361 6.037-8.355 1.304-2.801-.153-4.687 1.45-5.603 1.352-.773 3.49.565 2.905 4.105m-13.008 1.776c-.976-1.04-.484-1.883-.792-2.142-.364-.305-.496-.768.256-.65.742.119 1.264-.021 1.728-.335.727-.49.541-1.839 1.932-2.048 1.392-.206 2.445.179 2.162 1.91-.37 2.27-3.944 4.695-5.286 3.265m-.574-4.925c.848-.693 1.442-.672 1.686-.366.436.548-.031 1.544-.917 1.785-.246.067-1.369.21-1.597-.066-.23-.276.06-.728.828-1.353m-1.069 3.767c-.336.183-.978-.491-1.417-.751-.438-.26-.825-.128-1.47-.05-.644.076-1.565.016-1.65-.236-.152-.466.388-.594 1.135-.724s1.212.258 1.521.258c.309 0 .649-.22 1.443.234.723.415.772 1.088.438 1.27m-1.521 3.666c-.618.466-1.894.142-1.894-.31 0-.468.593-.194 1.004-.194.414 0 .93-.326.698-.973-.11-.302-.104-.933.385-.388.489.543.578 1.282-.193 1.865m-2.422-1.93c-.173.301-.696.854-1.16.75-.465-.102-.85 0-1.159.182-.309.181-1.47.699-1.52.105-.054-.623.36-1.555 1.211-1.892.85-.337 1.674-.544 2.112-.44.44.103 1.03.389.516 1.295m.748-6.4c.566-.206.438.26.128.673-.31.415-.154 1.116-.335 1.322-.179.208-.952.017-1.186-.311-.386-.545.825-1.477 1.393-1.684m.256-2.487c.541-.414 2.063-.907 2.372-1.036.309-.13 1.288-.648 1.624-.338.334.311-.387.648-.593 1.09-.208.44-.386 1.656-.337 2.306.052.646-.849-.261-1.055-.778-.207-.52-.129-.675-.748-.494-.618.182-1.803-.335-1.263-.75m13.33.909c-1.754 1.224-2.981 1.057-4 .46a6.775 6.775 0 0 1-.595-.376c-.169.046-.34.084-.516.116a4.338 4.338 0 0 1-.703.064c-1.35 0-1.907-.848-1.973-1.571-.101-1.117.438-1.552 1.173-1.991-1.28-.285-3.579.193-5.22.939-2.114.958-2.192 1.422-2.448 1.785-.258.365-.104 1.348-.18 1.61-.078.258-.413.67-.826 1.188-.412.52-.515 1.065-.49 1.375.027.311.336.726.49.855-.154.284-.696 1.711-.798 1.813-.234 0-.465.338-.567.44-.336.052-1.907.7-1.804 2.357.101 1.631 1.21 1.997 1.958 2.1.645.88 1.908 1.063 3.428 1.038.748-.014 1.508-.253 2.072-.473-5.376 8.29 2.032 16.496 4.953 18.16-.656-1.053-6.983-9.434 5.82-16.318 10.27-5.523 6.443-14.088 2.148-15.273-.288.453-.98 1.045-1.923 1.702M33.2 32.403c-.034-.569.693-.504.854-.405.161.096.258.356.063.356-.192 0-.53.258-.11.534.11.073-.775.08-.807-.486m3.928 7.795c.293.103.578.182.846.225C33.946 43.889 28.719 46 23 46 10.316 46 0 35.684 0 23c0-5.562 1.995-10.659 5.298-14.638.243.11.5.195.73.258C2.732 12.504.733 17.52.733 23 .733 35.28 10.72 45.266 23 45.266c5.36 0 10.283-1.903 14.128-5.07m-3.15-15.492c0 .098-.163.03-.184-.066-.018-.097-.047-.283-.047-.283s.386-.456.484-.456c.054 0 .144.253.144.389 0 .137-.058.213-.28.203-.223-.009-.116.117-.116.213m7.52 2.87c-.08.142-.282-.104-.363-.064-.078.04-.244-.013-.244-.128 0-.117.166-.208.373-.195.206.013.31.245.233.387m.101 1.362a1.758 1.758 0 0 0-.59.012c-.247.038-.181 0-.478-.012-.296-.014-.474-.35-.412-.494.14-.323.426-.298.618-.244.195.05.516.323.632.402.115.076.194.051.515.153.322.103-.09.21-.285.183m.555-1.554c.181-.064.31.167.31.258 0 .092-.14.063-.194.027-.193-.144-.116-.285-.116-.285m-1.779-.247c-.231.221-1.356.678-1.375 1.243-.02.564.97 1.284 2.15 1.088 1.178-.194 1.559-1.002 1.546-1.358-.02-.526-.658-1.713-1.74-2.12.02.273-.275.854-.58 1.147m-1.095 9.657c.277.252.389 1.042.297 1.315-.08.233-.402.36-.542.246-.297-.246-.666-.815-.553-.86.43-.176.522-.955.798-.701m-1.004-6.095c-.053-.324-.027-.998.386-.75.412.245.708.075.682.205-.024.13-.14.182-.27.274-.1.07-.451.426-.516.581-.064.157-.232.013-.282-.31m-1.572-2.785c-.306-1.671 3.646-1.412 2.64-.868 0 0-.746.374-.889.79-.381 1.108-1.589.969-1.751.078m-1.099 8.122c-.697.234-1.74.291-2.321.06-.982-.395.812-.407 1.915-1.457.631-.603.812-1.691 1.855-.993.966.648-.754 2.158-1.449 2.39m-3.308-2.954c-.177-.316-.105-.752.115-.971.227-.227.648-.48 1.534-.543.744-.052 1.128-.307 1.296-.387.17-.08.35 1.701-1.207 2.146-.844.24-1.553.086-1.738-.245m-.823-6.462c.039.652-.684 1.108-1.018.869-.334-.242-.197-1.692.085-2.703.846-3.044 3.433-4.172 4.149-4.073-.049.386-1.825.782-2.53 2.25-.907 1.886-.727 3.003-.686 3.657m-3.298 3.436c-2.49 3.18-7.456-1.592-1.444-5.548 1.869-1.23 3.099-2.955 3.7-3.807.193 1.125-1.659 3.575-2.101 4.93-.782 2.394 1.025 2.918-.155 4.425m-7.722 9.283c-2.242-1.422-1.261-4.493-1.028-3.388.514 2.418 3.578 2.238 4.797 2.873 1.083.564-1.176 2.162-3.77.515M36.648 21.13c.637.175.31.681.095.564-.21-.117-.85-.019-1.352.27-.502.295-1.411 1.246-1.604 1.517-.195.271-.33.797-.29 1.185-.155-.194-.204-.653-.097-1.068.155-.601.87-1.496 1.682-2.06.81-.563 1.566-.408 1.566-.408m-1.45 4.878c.505-.149 1.082-.524.831-.097-.253.428-.886.99-1.778.914-.756-.064-1.682-.702-1.644-1.361.035-.605.444-.641.639-.487.193.156.672 1.409 1.953 1.031m3.67 3.172c.168.157.207.415.774.52.85.155.49.206.296.247-.192.037-.824.011-1.146-.13-.285-.126-.574-.482-.515-.609.13-.286.424-.182.591-.028m.697 5.473c.329-1.12-.503-2.603-.619-2.797-.116-.194-.252-.328-.23-.564.017-.231.83-1.068 1.023-1.243.541.097.843-.102.972-.272.45-.012.709-.194.709-.194.024-.011.049-.027.072-.04a4.392 4.392 0 0 1-.743.145c-.677 0-1.348-.223-1.741-.63-.205-.213-.305-.444-.3-.668.02-.906.868-1.154 1.294-1.527.446-.389.711-1.201.711-1.201s.624-.102 1.416 1.105c0-.701-.375-1.074-.69-1.342-.387-.33-1.101-.175-1.101-.175-1.064-.99-1.914-.778-2.28-.759-.465.025-1.025.332-1.606.486.105-.187.2-.355.286-.504a.602.602 0 0 1-.16.021.168.168 0 0 1-.065-.018c.006.003.006.01.013.01a2.08 2.08 0 0 1-.267.316c-.406.369-.424.371-.984.544-.56.174-1.547-.252-1.606-.855-.057-.6.504-1.087 1.412-1.961.909-.875 1.72-.602 2.01-.486 0 0 .476.267.47.553a.804.804 0 0 1 .154.046c.187-1.175-.566-1.834-1.068-2.077-.522-.253-1.064.37-1.045.233.02-.135.54-2.506-.309-5.188-1.237-3.516-4.018-6.41-8.318-8.14C29.138 8.805 35.271 17.946 23 24.4c-11.262 5.922-7.71 13.116-4.1 15.31-7.51-1.848-13.08-8.61-13.08-16.674 0-.901.069-1.786.202-2.65-.342-.06-.898-.831-1.277-.73a18.628 18.628 0 0 0-.308 3.38c0 10.248 8.327 18.556 18.6 18.556 1.498 0 2.955-.176 4.35-.51-.396-.396-.649-.81-.882-1.2-.021-.042-.043-.08-.064-.124-1.03-2.128.516-5.082.516-5.082s3.138 2.318 4.593 2.215c.158.208 1.005 1.576.608 3.028 1.323-.351 2.842-.835 3.883-1.421.41.314 1.254.815 1.629.996 1.083.525 1.798.311 2.089-.038.248-.303.538-2.297-.768-3.56a4.94 4.94 0 0 0 .574-1.242m-9.76 5.579c-1.49.079-1.76-1.108-1.895-1.612-.136-.506.425-1.36.425-1.36.096-.391.812.037 1.101.211.29.175 1.373.37 1.335.545-.04.176-1.7.137-1.74.35-.04.215 1.236.348 1.623.33.387-.02.637 1.458-.85 1.536m1.545-3.03c-1.603.075-4.057-1.382-4.057-1.382-.058.097-1.122 2.118-.446 3.771.677 1.65 2.571 1.962 3.46 1.67.99-.323 2.282-1.632 1.043-4.06M12.66 10.592c0-.187.592-.47.826.024.205.442-.129.702-.36.702-.159 0-.49-.13-.439-.312.03-.112.406.078.36-.233-.025-.18-.387-.05-.387-.18M46 23c0 5.638-2.047 10.8-5.426 14.806a21.767 21.767 0 0 0-.132-1.006c3.01-3.798 4.824-8.588 4.824-13.8C45.266 10.722 35.276.733 23 .733c-.72 0-1.432.042-2.137.11a7.998 7.998 0 0 0-.934-.614A23.152 23.152 0 0 1 22.999 0C35.683 0 46 10.316 46 23M18.99 3.355c-.148.89-1.043 1.572-1.48 1.901-2.187 1.646-.865-.074-1.757.393-.285-.194 1.449-1.341 1.505-1.456.402.17 1.997-1.47.257-3.014.228.212 1.675.981 1.475 2.176m-1.176-1.198c.22.697-.31 1.53-1.495 2.257-1.185.722-1.85 1.058-1.726 2.018.053.408.361 1.428 2.164 1.116 1.805-.311 2.99-1.504 3.738-2.98.747-1.476.803-3.746-2.65-4.37-2.81-.463-4.842.542-4.842.644.052.208 4.237-.5 4.81 1.315m19.419 21.49l-.085.137a.56.56 0 0 0-.096-.13c.01-.02.02-.037.031-.055a.607.607 0 0 0 .15.049m2.982.568c.004-.073.04-.86.04-1.181 0-9.179-7.214-16.675-16.294-17.154.21-.313.403-.844.55-1.346 9.583.75 17.126 8.746 17.126 18.5 0 .463-.067 1.588-.076 1.693-.308-.307-.918-.084-1.346-.512m-3.24-.218c.095.058.203.28.195.32-.061-.04-.315-.214-.315-.214-.066-.09.066-.14.12-.106m-.396.387c.164 0 .24-.078.368-.078.125 0 .387.28.27-.048-.115-.331-.222-.719-.436-.448-.044.06-.365.574-.202.574m-1.458-.783a24.016 24.016 0 0 1-.38-.047c-.097-.048-.002-.155.06-.15.113.008.307.158.32.197m-.175-.422c-.087-.03-.28.108-.445.224-.164.116-.105.369-.105.369s.19-.058.298-.077c.155-.029.513.067.552-.019.077-.137-.22-.47-.3-.497m3.288.244c.153.122.27.386.243.412-.1-.08-.498-.416-.498-.416-.09-.124.17-.063.255.004m.404.64c.125-.066-.203-.601-.328-.797-.126-.193-.533-.503-.696-.542-.194-.05-.488.362-.512.436-.165.495.232.339.754.456.521.116.656.514.782.448m-1.97-1.643c-.06-.01-.175-.163-.175-.163.01-.05.04-.07.116-.128.076-.058.146.068.183.049.038-.02.088-.039.203 0 .116.038.126.106.165.106.037 0 .095 0 .163.02s.067.068.118.174c.05.112-.1.105-.118.135-.019.04-.068.071-.116 0-.047-.066-.114-.144-.114-.144s-.078.069-.127.038c-.049-.029-.124-.106-.154-.126-.03-.02-.088.049-.143.04m-.476.205c.223.115.476.561.455.64a41.991 41.991 0 0 1-.734-.427c-.155-.176.154-.28.28-.213m-.669.328c.127-.008.436.082.581.157.136.067.666.427.714.407.05-.02.01-.555-.375-.97-.461-.5-.783-.253-.9-.176-.116.077-.289.32-.289.427 0 .118.144.164.27.155"/></defs><g fill="none" fill-rule="evenodd"><g transform="translate(91.127 13.169)"><mask id="nb" fill="#fff"><use xlink:href="#na"/></mask><g fill="#F50" mask="url(#nb)"><path d="M-4.679-1.36h83.06v29.02h-83.06z"/></g></g><g transform="translate(56.815 11.809)"><mask id="nd" fill="#fff"><use xlink:href="#nc"/></mask><g fill="#FFF" mask="url(#nd)"><path d="M0 0h113.082v29.021H0z"/></g></g><mask id="nf" fill="#fff"><use xlink:href="#ne"/></mask><g fill="#F50" mask="url(#nf)"><path d="M0 0h46v46H0z"/></g></g></symbol><symbol viewBox="0 0 64 64"><defs><path id="namecoin-nmc" d="M32 64C14.327 64 0 49.673 0 32 0 14.327 14.327 0 32 0c17.673 0 32 14.327 32 32 0 17.673-14.327 32-32 32zm14.7-48.2c-.7 0-1.3 0-2 .1-.9.1-1.7.3-2.3.9-.2.2-.4.3-.5.6-.3.5-.5 1.1-.5 1.7 0 .6-.1 1.3-.1 1.9v7.4c-.1 0-.1 0-.2-.1-1.4-.9-2.9-1.8-4.3-2.8-1.9-1.2-3.8-2.5-5.7-3.7-2.4-1.6-4.8-3.1-7.3-4.7-.5-.3-1.1-.7-1.6-.9-.5-.2-1-.4-1.5-.4s-1.1 0-1.6.1c-.6.1-1.1.4-1.5.7-.4.2-.6.6-.8 1-.2.6-.3 1.2-.3 1.8v2.2c0 8.2 0 16.5.1 24.7v1.3c0 .2 0 .2.2.2h.8c.7 0 1.4 0 2.1-.2 1.3-.4 2.4-1.4 2.6-3.1 0-.8.1-1.6.1-2.4v-8.6c.1 0 .1.1.2.1.4.3.7.5 1.1.8 3.5 2.5 7.1 5 10.6 7.6l6.3 4.5c.6.4 1.2.8 1.8 1.1.4.2.8.3 1.2.3.8 0 1.5-.3 2.2-.7.6-.4 1-1 1.1-1.8.1-.4.1-.8.1-1.2 0-7.7.1-15.4.1-23.2v-4.9c-.2-.3-.2-.3-.4-.3zm-5.6 23.6c0 .2-.1.4-.3.5-.2.1-.4.1-.6-.1-.6-.4-1.2-.8-1.7-1.2-2.9-1.9-5.8-3.9-8.7-5.8-2-1.4-4-2.7-6-4.1-.3-.2-.6-.4-.9-.7-.4-.3-.6-.6-.6-1.1v-.5c0-.8 0-1.7.1-2.5 0-.2 0-.4.1-.6.1-.2.2-.3.3-.4.2-.1.4-.1.6 0 .4.3.8.5 1.2.8 2.6 1.7 5.2 3.5 7.8 5.2 2.3 1.5 4.5 3.1 6.8 4.6.5.3.9.6 1.4 1 .4.2.6.5.5 1v3.9z"/></defs><g fill="none" fill-rule="evenodd"><mask id="ob" fill="#fff"><use xlink:href="#oa"/></mask><use fill="#6B91C0" fill-rule="nonzero" xlink:href="#oa"/><g fill="#FFF" mask="url(#ob)"><path d="M0 0h64v64H0z"/></g></g></symbol><symbol viewBox="0 0 64 64" id="namecoin-nmc-c" xmlns="http://www.w3.org/2000/svg"><defs><path id="pa" d="M32 64C14.327 64 0 49.673 0 32 0 14.327 14.327 0 32 0c17.673 0 32 14.327 32 32 0 17.673-14.327 32-32 32zm14.7-48.2c-.7 0-1.3 0-2 .1-.9.1-1.7.3-2.3.9-.2.2-.4.3-.5.6-.3.5-.5 1.1-.5 1.7 0 .6-.1 1.3-.1 1.9v7.4c-.1 0-.1 0-.2-.1-1.4-.9-2.9-1.8-4.3-2.8-1.9-1.2-3.8-2.5-5.7-3.7-2.4-1.6-4.8-3.1-7.3-4.7-.5-.3-1.1-.7-1.6-.9-.5-.2-1-.4-1.5-.4s-1.1 0-1.6.1c-.6.1-1.1.4-1.5.7-.4.2-.6.6-.8 1-.2.6-.3 1.2-.3 1.8v2.2c0 8.2 0 16.5.1 24.7v1.3c0 .2 0 .2.2.2h.8c.7 0 1.4 0 2.1-.2 1.3-.4 2.4-1.4 2.6-3.1 0-.8.1-1.6.1-2.4v-8.6c.1 0 .1.1.2.1.4.3.7.5 1.1.8 3.5 2.5 7.1 5 10.6 7.6l6.3 4.5c.6.4 1.2.8 1.8 1.1.4.2.8.3 1.2.3.8 0 1.5-.3 2.2-.7.6-.4 1-1 1.1-1.8.1-.4.1-.8.1-1.2 0-7.7.1-15.4.1-23.2v-4.9c-.2-.3-.2-.3-.4-.3zm-5.6 23.6c0 .2-.1.4-.3.5-.2.1-.4.1-.6-.1-.6-.4-1.2-.8-1.7-1.2-2.9-1.9-5.8-3.9-8.7-5.8-2-1.4-4-2.7-6-4.1-.3-.2-.6-.4-.9-.7-.4-.3-.6-.6-.6-1.1v-.5c0-.8 0-1.7.1-2.5 0-.2 0-.4.1-.6.1-.2.2-.3.3-.4.2-.1.4-.1.6 0 .4.3.8.5 1.2.8 2.6 1.7 5.2 3.5 7.8 5.2 2.3 1.5 4.5 3.1 6.8 4.6.5.3.9.6 1.4 1 .4.2.6.5.5 1v3.9z"/></defs><g fill="none" fill-rule="evenodd"><mask id="pb" fill="#fff"><use xlink:href="#pa"/></mask><use fill="#6B91C0" fill-rule="nonzero" xlink:href="#pa"/><g mask="url(#pb)"><path d="M0 0h64v64H0z"/></g></g></symbol><symbol viewBox="0 0 64 64"><defs><path id="neo" d="M32 0C14.327 0 0 14.327 0 32c0 17.673 14.327 32 32 32 17.673 0 32-14.327 32-32C64 14.327 49.673 0 32 0zm-2.794 49.903l-12.008-5.68V22.512l12.008 5.693v21.698zm.305-23.91l-11.817-5.602 17.382-6.294L46.893 19.7l-17.382 6.294zm17.573 17.808L34.77 37.968v-11.61L47.084 21.9v21.901z"/></defs><g fill="none" fill-rule="evenodd"><mask id="qb" fill="#fff"><use xlink:href="#qa"/></mask><use fill="#74BC2A" fill-rule="nonzero" xlink:href="#qa"/><g fill="#FFF" mask="url(#qb)"><path d="M0 0h64v64H0z"/></g></g></symbol><symbol viewBox="0 0 64 64" id="neo-c" xmlns="http://www.w3.org/2000/svg"><defs><path id="ra" d="M32 0C14.327 0 0 14.327 0 32c0 17.673 14.327 32 32 32 17.673 0 32-14.327 32-32C64 14.327 49.673 0 32 0zm-2.794 49.903l-12.008-5.68V22.512l12.008 5.693v21.698zm.305-23.91l-11.817-5.602 17.382-6.294L46.893 19.7l-17.382 6.294zm17.573 17.808L34.77 37.968v-11.61L47.084 21.9v21.901z"/></defs><g fill="none" fill-rule="evenodd"><mask id="rb" fill="#fff"><use xlink:href="#ra"/></mask><use fill="#74BC2A" fill-rule="nonzero" xlink:href="#ra"/><g mask="url(#rb)"><path d="M0 0h64v64H0z"/></g></g></symbol><symbol viewBox="0 0 64 64" id="omni-c" xmlns="http://www.w3.org/2000/svg"><defs><path id="sa" d="M32 0c17.673 0 32 14.327 32 32 0 17.673-14.326 32-32 32C14.327 64 0 49.673 0 32 0 14.327 14.327 0 32 0zm0 51.793c10.915 0 19.794-8.879 19.794-19.793S42.914 12.206 32 12.206 12.207 21.086 12.207 32 21.087 51.793 32 51.793zm0-34.226c7.96 0 14.434 6.474 14.434 14.433S39.96 46.433 32 46.433c-7.958 0-14.433-6.475-14.433-14.433 0-7.959 6.475-14.433 14.433-14.433zm17.952-3.604h-6.203a21.637 21.637 0 0 1 6.203 6.158v-6.158zm-36.014 0v6.328a21.634 21.634 0 0 1 6.314-6.328h-6.314zm0 36.014h6.224a21.636 21.636 0 0 1-6.224-6.268v6.268zm36.014 0v-6.098a21.647 21.647 0 0 1-6.112 6.098h6.112z"/></defs><g fill="none" fill-rule="evenodd"><mask id="sb" fill="#fff"><use xlink:href="#sa"/></mask><use fill="#124793" fill-rule="nonzero" xlink:href="#sa"/><g mask="url(#sb)"><path d="M0 0h64v64H0z"/></g></g></symbol><symbol viewBox="0 0 64 64" id="original-c" xmlns="http://www.w3.org/2000/svg"><g fill="none"><path fill="#4C4C4C" d="M58.597 48.91H46.004V31.493L32 45.57 17.996 31.492v17.419H5C10.642 57.924 20.616 64 32 64s21.358-5.975 27-15.09h-.403z"/><path fill="#FF6B01" d="M11.306 42.667V15.784L32 36.659l20.694-20.875v26.883h9.59A32.003 32.003 0 0 0 64 32.28C64 14.46 49.666 0 32 0S0 14.46 0 32.28c0 3.666.606 7.128 1.716 10.387h9.59z"/></g></symbol><symbol viewBox="0 0 64 64"><defs><path id="peercoin" d="M32 64C14.327 64 0 49.673 0 32 0 14.327 14.327 0 32 0c17.673 0 32 14.327 32 32 0 17.673-14.327 32-32 32zm7.8-16c13.1-11.3 5.4-31.9-21.5-32.5.3 18.2-2.2 32.2 16.1 32.2 5.7-8.7 1.5-17.3-7.8-25.8 9.2 3.6 17 14.6 13.2 26.1z"/></defs><g fill="none" fill-rule="evenodd"><mask id="ub" fill="#fff"><use xlink:href="#ua"/></mask><use fill="#00B346" fill-rule="nonzero" xlink:href="#ua"/><g fill="#FFF" mask="url(#ub)"><path d="M0 0h64v64H0z"/></g></g></symbol><symbol viewBox="0 0 64 64" id="peercoin-c" xmlns="http://www.w3.org/2000/svg"><defs><path id="va" d="M32 64C14.327 64 0 49.673 0 32 0 14.327 14.327 0 32 0c17.673 0 32 14.327 32 32 0 17.673-14.327 32-32 32zm7.8-16c13.1-11.3 5.4-31.9-21.5-32.5.3 18.2-2.2 32.2 16.1 32.2 5.7-8.7 1.5-17.3-7.8-25.8 9.2 3.6 17 14.6 13.2 26.1z"/></defs><g fill="none" fill-rule="evenodd"><mask id="vb" fill="#fff"><use xlink:href="#va"/></mask><use fill="#00B346" fill-rule="nonzero" xlink:href="#va"/><g mask="url(#vb)"><path d="M0 0h64v64H0z"/></g></g></symbol><symbol viewBox="0 0 64 64"><defs><path id="ripple-xrp" d="M32 64C14.327 64 0 49.673 0 32 0 14.327 14.327 0 32 0c17.673 0 32 14.327 32 32 0 17.673-14.327 32-32 32zm8.7-28.2c-1-.3-2-.4-2.9-.4-.9.1-1.9-.3-2.4-1.1l-.3-.4c-.6-.9-.6-2 0-2.9l.3-.5c.5-.7 1.3-1.1 2.2-1.1 1.1 0 2.2-.2 3.3-.8 2.7-1.4 4.5-4.1 4.4-7.1-.1-4.3-3.7-7.7-8.1-7.5-3.7.2-6.8 3.2-7.2 6.9-.2 2 .4 3.8 1.4 5.3.6.9.6 2.1 0 3l-.1.1c-.5.7-1.3 1.1-2.1 1.1h-.5c-1 0-1.9-.6-2.3-1.5-1.3-2.6-4-4.3-7.1-4.2-4 .1-7.3 3.4-7.4 7.4-.2 4.4 3.3 8 7.7 8 3 0 5.6-1.7 6.8-4.2.4-.9 1.3-1.5 2.3-1.5h.4c.9 0 1.7.4 2.1 1.1l.5.7c.6.8.5 1.9 0 2.7-.9 1.4-1.3 3-1.1 4.8.3 3.6 3.3 6.5 6.8 6.9 4.9.5 8.9-3.6 8.5-8.4-.2-2.9-2.3-5.5-5.2-6.4z"/></defs><g fill="none" fill-rule="evenodd"><mask id="wb" fill="#fff"><use xlink:href="#wa"/></mask><use fill="#1276A7" fill-rule="nonzero" xlink:href="#wa"/><g fill="#FFF" mask="url(#wb)"><path d="M0 0h64v64H0z"/></g></g></symbol><symbol viewBox="0 0 64 64" id="ripple-xrp-c" xmlns="http://www.w3.org/2000/svg"><defs><path id="xa" d="M32 64C14.327 64 0 49.673 0 32 0 14.327 14.327 0 32 0c17.673 0 32 14.327 32 32 0 17.673-14.327 32-32 32zm8.7-28.2c-1-.3-2-.4-2.9-.4-.9.1-1.9-.3-2.4-1.1l-.3-.4c-.6-.9-.6-2 0-2.9l.3-.5c.5-.7 1.3-1.1 2.2-1.1 1.1 0 2.2-.2 3.3-.8 2.7-1.4 4.5-4.1 4.4-7.1-.1-4.3-3.7-7.7-8.1-7.5-3.7.2-6.8 3.2-7.2 6.9-.2 2 .4 3.8 1.4 5.3.6.9.6 2.1 0 3l-.1.1c-.5.7-1.3 1.1-2.1 1.1h-.5c-1 0-1.9-.6-2.3-1.5-1.3-2.6-4-4.3-7.1-4.2-4 .1-7.3 3.4-7.4 7.4-.2 4.4 3.3 8 7.7 8 3 0 5.6-1.7 6.8-4.2.4-.9 1.3-1.5 2.3-1.5h.4c.9 0 1.7.4 2.1 1.1l.5.7c.6.8.5 1.9 0 2.7-.9 1.4-1.3 3-1.1 4.8.3 3.6 3.3 6.5 6.8 6.9 4.9.5 8.9-3.6 8.5-8.4-.2-2.9-2.3-5.5-5.2-6.4z"/></defs><g fill="none" fill-rule="evenodd"><mask id="xb" fill="#fff"><use xlink:href="#xa"/></mask><use fill="#1276A7" fill-rule="nonzero" xlink:href="#xa"/><g mask="url(#xb)"><path d="M0 0h64v64H0z"/></g></g></symbol><symbol viewBox="0 0 64 64"><defs><path id="tether-wallet-usdt" d="M32 64C14.327 64 0 49.673 0 32 0 14.327 14.327 0 32 0c17.673 0 32 14.327 32 32 0 17.673-14.327 32-32 32zm4.422-28.467c8.429-.498 14.667-2.417 14.667-4.7 0-2.272-6.19-4.186-14.569-4.692v-4.07h10.533v-7.09H17.62v6.991h10.533v4.14c-8.628.461-15.06 2.404-15.06 4.722 0 2.658 8.465 4.824 18.998 4.824-1.379 0-2.658 0-3.938-.098v14.67h8.269V35.534zm-8.17-5.585v2.363c1.18 0 2.559.098 3.937.098 1.477.099 2.953.099 4.331 0v-5.438c8.135.661 12.404 3.02 12.994 3.863-.689.984-6.3 2.461-17.423 2.461-11.025 0-16.735-1.477-17.424-2.461.602-.946 5.032-3.318 13.486-3.904v3.018h.099z"/></defs><g fill="none" fill-rule="evenodd"><mask id="yb" fill="#fff"><use xlink:href="#ya"/></mask><use fill="#00A478" fill-rule="nonzero" xlink:href="#ya"/><g fill="#FFF" mask="url(#yb)"><path d="M0 0h64v64H0z"/></g></g></symbol></svg>
