<svg xmlns="http://www.w3.org/2000/svg" xmlns:xlink="http://www.w3.org/1999/xlink" width="64" height="64" viewBox="0 0 64 64">
    <defs>
        <path id="a" d="M32 0C14.334 0 0 14.334 0 32s14.334 32 32 32 32-14.334 32-32S49.666 0 32 0zM12.82 34.625v-.202c.303-.808.606-1.615.909-2.524.303-.808.504-1.615.807-2.423.101-.202.202-.302.404-.302h13.628c0 .1-.101.302-.101.403l-1.514 4.543c-.101.303-.202.404-.606.404H13.224c-.101.1-.303.1-.404.1zm38.36-9.287c-1.312 4.037-2.625 8.075-3.937 12.214-.808 2.524-4.24 5.855-7.975 5.754-8.378-.101-16.757 0-25.035 0h-.504c.1-.303.202-.606.303-.808a72.383 72.383 0 0 0 1.413-4.34c.1-.404.303-.404.605-.404h22.612c.303 0 .505-.101.606-.404 1.11-3.533 2.322-7.066 3.432-10.6 0-.1.101-.201.101-.403h-23.52c0-.202.1-.303.1-.404.505-1.615 1.111-3.23 1.616-4.845.1-.303.202-.404.505-.404H46.94c.505 0 1.11.101 1.615.202 1.413.505 2.221 1.514 2.524 2.927 0 .101.1.202.1.303v1.212z"/>
    </defs>
    <g fill="none" fill-rule="evenodd">
        <mask id="b" fill="#fff">
            <use xlink:href="#a"/>
        </mask>
        <use fill="#3A74BE" fill-rule="nonzero" xlink:href="#a"/>
        <g fill="#FFF" mask="url(#b)">
            <path d="M0 0h64v64H0z"/>
        </g>
    </g>
</svg>
