<svg xmlns="http://www.w3.org/2000/svg" xmlns:xlink="http://www.w3.org/1999/xlink" width="64" height="64" viewBox="0 0 64 64">
    <defs>
        <path id="a" d="M32 64C14.327 64 0 49.673 0 32 0 14.327 14.327 0 32 0c17.673 0 32 14.327 32 32 0 17.673-14.327 32-32 32zm-1.267-45.02l-5.679 9.582-1.795-5.834 7.474-10.276v6.527zm2.534-6.528l7.474 10.276-1.795 5.834-5.679-9.583v-6.527zm-3.256 32.221l-3.95-12.838L32 21.813l5.939 10.022-3.95 12.838H30.01zm.78 2.535h2.418L32 51.136l-1.209-3.928zm12.237 0l-8.83 5.406 1.663-5.406h7.167zm-6.387-2.535l3.044-9.893 5.862 9.893h-8.906zm-15.669 2.535h7.167l1.664 5.406-8.83-5.406zm3.343-12.428l3.044 9.893h-8.906l5.862-9.893zm19.998 2.838l-3.622-6.11 1.27-4.126 2.352 10.236zm-21.004-6.11l-3.622 6.11 2.352-10.236 1.27 4.126zm9.217 25.09c.055-.024.108-.053.159-.086l15.501-9.49c.465-.285.696-.834.574-1.365L43.374 22.21a1.267 1.267 0 0 0-.21-.461L33.042 7.833a1.259 1.259 0 0 0-.504-.426 1.261 1.261 0 0 0-1.076 0 1.259 1.259 0 0 0-.504.426L20.836 21.75c-.1.138-.172.295-.21.461L15.24 45.657c-.122.53.109 1.08.574 1.364l15.501 9.491a1.266 1.266 0 0 0 1.211.087z"/>
    </defs>
    <g fill="none" fill-rule="evenodd">
        <mask id="b" fill="#fff">
            <use xlink:href="#a"/>
        </mask>
        <use fill="#000" fill-rule="nonzero" xlink:href="#a"/>
        <g fill="#D9D9D9" mask="url(#b)">
            <path d="M0 0h64v64H0z"/>
        </g>
    </g>
</svg>
