<svg xmlns="http://www.w3.org/2000/svg" xmlns:xlink="http://www.w3.org/1999/xlink" width="64" height="64" viewBox="0 0 64 64">
    <defs>
        <path id="a" d="M31.972 0C14.322 0 0 14.322 0 31.972c0 17.65 14.322 31.972 31.972 31.972 17.65 0 31.972-14.323 31.972-31.972C63.944 14.322 49.62 0 31.972 0zM44.77 20.805a2.307 2.307 0 1 1 4.488 1.07 2.307 2.307 0 0 1-4.488-1.07zm-.334 5.554a1.866 1.866 0 1 1 3.638.828 1.866 1.866 0 0 1-3.638-.828zm-2.272 9.537a1.201 1.201 0 1 1 .556-2.337 1.201 1.201 0 0 1-.556 2.337zm.748 4.705a.886.886 0 1 1-1.612-.736.886.886 0 0 1 1.612.736zm-2.151-12.63a2.01 2.01 0 1 1 0-4.02 2.01 2.01 0 0 1 0 4.02zm2.89 10.303a1.015 1.015 0 1 1 1.839.859 1.015 1.015 0 0 1-1.839-.86zm.46-5.37a1.723 1.723 0 1 1 .799-3.352 1.723 1.723 0 0 1-.799 3.352zm-2.575-10.273a2.177 2.177 0 1 1 0-4.354 2.177 2.177 0 0 1 0 4.354zm-.609-11.263a2.692 2.692 0 1 1 0 5.384 2.692 2.692 0 0 1 0-5.384zM39.359 29.09a1.402 1.402 0 1 1 .04 2.803 1.402 1.402 0 0 1-.04-2.803zm-2.161 5.967a1.224 1.224 0 1 1 0-2.449 1.224 1.224 0 0 1 0 2.449zm1.143 3.715a.973.973 0 1 1-1.893-.451.973.973 0 0 1 1.893.45zm-3.678-3.715a1.136 1.136 0 1 1 .05 2.271 1.136 1.136 0 0 1-.05-2.271zm-1.34-11.098a1.05 1.05 0 1 1-.635-2 1.05 1.05 0 0 1 .635 2zm2.154 5.025a1.136 1.136 0 1 1-1.164-1.95 1.136 1.136 0 0 1 1.164 1.95zm-.173-5.459a.973.973 0 1 1 .556 1.866.973.973 0 0 1-.556-1.866zm1.15-3.113a.822.822 0 1 1 .127 1.64.822.822 0 0 1-.128-1.64zm-1.852-1.76a.886.886 0 1 1 .138 1.768.886.886 0 0 1-.138-1.768zm-2.544-1.499a1.015 1.015 0 1 1 .159 2.023 1.015 1.015 0 0 1-.159-2.023zm.6 9.22a1.224 1.224 0 1 1-2.12 1.225 1.224 1.224 0 0 1 2.12-1.225zm-9.115 9.208a1.05 1.05 0 1 1 1.524 1.442 1.05 1.05 0 0 1-1.524-1.442zm.078-2.916a.974.974 0 1 1 1.415 1.339.974.974 0 0 1-1.415-1.339zm.619 6.125a1.201 1.201 0 1 1 1.745 1.651 1.201 1.201 0 0 1-1.745-1.651zm4.085-10.792a1.402 1.402 0 1 1-1.407-2.425A1.402 1.402 0 0 1 28.325 28zm.391 4.715a1.136 1.136 0 1 1-1.984-1.107 1.136 1.136 0 0 1 1.984 1.107zm-2.86 9.26a1.723 1.723 0 1 1 2.504 2.367 1.723 1.723 0 0 1-2.503-2.367zm2.04-5.393a1.224 1.224 0 1 1 1.224-2.12 1.224 1.224 0 0 1-1.223 2.12zm1.212 1.782a1.402 1.402 0 1 1 2.444 1.374 1.402 1.402 0 0 1-2.444-1.374zM30.9 21.655a1.201 1.201 0 1 1-2.292.719 1.201 1.201 0 0 1 2.292-.72zm-2.227-5.696a1.456 1.456 0 1 1 .227 2.902 1.456 1.456 0 0 1-.227-2.902zm-1.338 5.505a1.723 1.723 0 1 1-3.289 1.03 1.723 1.723 0 0 1 3.29-1.03zm-2.69-5.874a1.576 1.576 0 1 1 .285 3.14 1.576 1.576 0 0 1-.285-3.14zm.094 11.242a2.01 2.01 0 1 1-3.482 2.01 2.01 2.01 0 0 1 3.482-2.01zm-4.351 7.771a.822.822 0 1 1 1.338-.955.822.822 0 0 1-1.338.955zm.633 2.713a.886.886 0 1 1-1.003-1.46.886.886 0 0 1 1.003 1.46zm1.739-15.182a1.866 1.866 0 1 1-3.565 1.101 1.866 1.866 0 0 1 3.565-1.1zm-2.724-6.115a1.949 1.949 0 1 1 .347 3.883 1.949 1.949 0 0 1-.347-3.883zm-4.825 6.503a2.307 2.307 0 1 1 1.347 4.413 2.307 2.307 0 0 1-1.347-4.413zm-1.257 13.453a2.692 2.692 0 1 1-2.692-4.663 2.692 2.692 0 0 1 2.692 4.663zm4.975-4.17a2.177 2.177 0 1 1-2.176-3.77 2.177 2.177 0 0 1 2.176 3.77zm.834 8.234a1.015 1.015 0 1 1 1.654-1.175 1.015 1.015 0 0 1-1.654 1.175zm.657 3.529a1.456 1.456 0 1 1 2.385-1.67 1.456 1.456 0 0 1-2.385 1.67zm1.695 3.672a1.576 1.576 0 1 1 2.598-1.784 1.576 1.576 0 0 1-2.598 1.784zm5.386 4.28a1.949 1.949 0 1 1-2.207-3.212 1.949 1.949 0 0 1 2.207 3.213zm3.934-3.355a1.866 1.866 0 1 1-2.728-2.546 1.866 1.866 0 0 1 2.728 2.546zm.368-6.627a2.01 2.01 0 1 1 3.482 2.01 2.01 2.01 0 0 1-3.482-2.01zm4.292 10.316a2.307 2.307 0 1 1-3.382-3.138 2.307 2.307 0 0 1 3.382 3.138zm3.716-4.797a2.177 2.177 0 1 1-3.77-2.177 2.177 2.177 0 0 1 3.77 2.177zm.65-5.732a.822.822 0 1 1-1.483-.709.822.822 0 0 1 1.484.709zm.535-3.999a1.05 1.05 0 1 1-2.041-.486 1.05 1.05 0 0 1 2.04.486zM46.1 49.984a2.692 2.692 0 1 1-4.663-2.692 2.692 2.692 0 0 1 4.663 2.692zm2.11-13.17a1.455 1.455 0 1 1-2.627-1.254 1.455 1.455 0 0 1 2.627 1.255zm2.333-3.303a1.576 1.576 0 1 1-2.845-1.358 1.576 1.576 0 0 1 2.845 1.358zm1.933-4.207a1.949 1.949 0 1 1-3.517-1.68 1.949 1.949 0 0 1 3.517 1.68z"/>
    </defs>
    <g fill="none" fill-rule="evenodd">
        <mask id="b" fill="#fff">
            <use xlink:href="#a"/>
        </mask>
        <use fill="#313131" fill-rule="nonzero" xlink:href="#a"/>
        <g mask="url(#b)">
            <path d="M0 0h64v64H0z"/>
        </g>
    </g>
</svg>
