<svg xmlns="http://www.w3.org/2000/svg" xmlns:xlink="http://www.w3.org/1999/xlink" width="64" height="64" viewBox="0 0 64 64">
    <defs>
        <path id="a" d="M31.9 64C14.132 63.897-.1 49.642 0 31.95 0 14.154 14.437-.1 32.1 0c17.767.102 32 14.458 31.9 32.152-.202 17.693-14.537 31.949-32.1 31.847zm28.97-31.95c0-16.075-12.92-29.016-28.97-29.016-15.95 0-28.871 12.941-28.871 28.915 0 16.076 12.92 29.017 28.971 29.017 15.95 0 28.87-12.941 28.87-28.915zm-4.34 0C56.328 45.7 45.325 56.72 31.798 56.62 18.07 56.417 7.168 45.295 7.37 31.747 7.571 18.098 18.574 7.28 32 7.381c13.628.101 24.53 11.122 24.53 24.67zm-26.145 8.797v-.304c.706-2.73 1.312-5.358 2.019-8.088.1-.202.303-.506.605-.607.707-.303 1.414-.606 2.12-.808 1.615-.405 2.524-1.315 2.726-2.933.1-.707.404-1.415.605-2.224-1.716.708-3.23 1.315-4.845 1.921 1.11-4.347 2.12-8.391 3.23-12.638H27.66c-.605 0-.807.202-1.01.809L22.41 31.747c-.1.304-.404.607-.605.708-.909.404-1.918.708-2.827 1.112-.202.101-.505.202-.505.303-.403 1.315-.807 2.73-1.312 4.247 1.413-.607 2.625-1.112 4.038-1.618-.909 3.539-1.817 6.976-2.726 10.414h26.045c.504 0 .706-.101.807-.607.202-1.01.504-2.022.807-2.932.202-.708.303-1.415.505-2.224l-16.252-.303z"/>
    </defs>
    <g fill="none" fill-rule="evenodd">
        <mask id="b" fill="#fff">
            <use xlink:href="#a"/>
        </mask>
        <use fill="#C0C0C0" fill-rule="nonzero" xlink:href="#a"/>
        <g mask="url(#b)">
            <path d="M0 0h64v64H0z"/>
        </g>
    </g>
</svg>
