<svg xmlns="http://www.w3.org/2000/svg" xmlns:xlink="http://www.w3.org/1999/xlink" width="170" height="46" viewBox="0 0 170 46">
    <defs>
        <path id="a" d="M47.672 13.325c-.216.586-.61 1.05-1.208 1.407-.73.44-1.503.654-2.371.654-1.147 0-2.112-.345-2.946-1.057-.69-.585-1.118-1.323-1.3-2.241h12.366v1.237h-4.54zM41.137 5.91c.829-.82 1.785-1.218 2.922-1.218 1.157 0 2.11.395 2.905 1.2.442.457.772.955.986 1.504h-7.81a4.49 4.49 0 0 1 .997-1.486zm-11.645 7.944c-.694 1.044-1.567 1.531-2.745 1.531-1.295 0-2.214-.529-2.888-1.659-.583-.985-.88-2.223-.88-3.688 0-1.438.308-2.676.913-3.684.675-1.135 1.582-1.662 2.855-1.662 1.178 0 2.05.486 2.745 1.532.678 1.02 1.02 2.3 1.02 3.814 0 1.512-.342 2.797-1.02 3.816zm-16.618.01c-.78 1.023-1.844 1.522-3.25 1.522-1.43 0-2.501-.499-3.286-1.528-.753-.97-1.117-2.22-1.117-3.82 0-1.555.393-2.829 1.206-3.894.746-.978 1.79-1.451 3.196-1.451 1.406 0 2.47.496 3.25 1.518.752.998 1.12 2.249 1.12 3.827 0 1.58-.368 2.83-1.12 3.825zM67.696 2.006C66.28.791 64.5.175 62.406.175c-1.535 0-2.97.36-4.265 1.077-.25.139-.487.286-.706.445V.628h-5.222v3.969c-.265-.46-.56-.903-.896-1.318C49.567 1.102 47.127 0 44.059 0c-3.048 0-5.519 1.067-7.335 3.169a9.74 9.74 0 0 0-1.68 2.763C34.597 4.66 33.93 3.56 33.049 2.64 31.482 1.002 29.524.175 27.228.175c-1.237 0-2.427.27-3.537.805-.248.12-.483.25-.711.392V.628h-5.22v3.825a9.132 9.132 0 0 0-1.551-1.889C14.402.864 12.179.001 9.606.001 7.035 0 4.81.863 3 2.566c-1.99 1.885-3 4.4-3 7.473 0 3.076 1.01 5.59 3.002 7.477 1.81 1.7 4.033 2.565 6.604 2.565 2.574 0 4.796-.866 6.606-2.568a9.295 9.295 0 0 0 1.547-1.9v11.14h5.22v-8.057c.25.15.513.288.788.413a8.663 8.663 0 0 0 3.599.76c2.237 0 4.165-.775 5.727-2.301.91-.894 1.581-1.983 2.023-3.25a9.723 9.723 0 0 0 1.607 2.589c1.816 2.106 4.286 3.173 7.336 3.173 2.11 0 3.992-.527 5.593-1.566 1.086-.71 1.941-1.602 2.561-2.66v3.597h5.222V8.504c0-1.29.375-2.267 1.154-2.98.715-.656 1.57-.971 2.61-.971 1.058 0 1.91.314 2.606.967.78.717 1.16 1.694 1.16 2.984v10.947h5.219V7.874c0-2.467-.833-4.44-2.488-5.867z"/>
        <path id="c" d="M36.763 0l-8.19 11.337 8.19 11.335h-7.2l-4.59-6.352-4.589 6.352h-7.2l8.189-11.335-3.942-5.458H5.812v2.518h9.749v5.88H5.812v8.396H0V0h20.384l4.59 6.353L29.563 0h7.199zm67.207 25.602h.526l-1.127 2.697c-.13.31-.307.722-.768.722-.113 0-.258-.014-.397-.042v-.393a.946.946 0 0 0 .284.05c.231 0 .306-.073.488-.568l-1.041-2.466h.548l.746 1.92.74-1.92zm-3.5 1.156v.185h-2.046c.038.505.306.768.8.768.387 0 .612-.152.698-.485h.505c-.13.536-.59.86-1.225.86-.8 0-1.283-.486-1.283-1.268 0-.777.516-1.268 1.316-1.268.86 0 1.235.528 1.235 1.208zm-.494-.19c-.033-.407-.306-.643-.752-.643-.435 0-.703.213-.784.643h1.536zm-4.714-1.027c.387 0 .714.171.822.435.059.144.07.213.07.51v1.54h-.484v-1.471c0-.463-.16-.63-.553-.63-.316 0-.574.153-.66.37-.054.135-.06.181-.06.463v1.268h-.488v-2.424h.489v.323c.285-.291.494-.384.864-.384zm-3.124 1.277c0 .791-.478 1.268-1.278 1.268-.79 0-1.272-.477-1.272-1.268 0-.8.483-1.277 1.272-1.277.8 0 1.278.477 1.278 1.277zm-.515-.018c0-.555-.285-.875-.763-.875-.472 0-.757.32-.757.893 0 .56.285.893.757.893.483 0 .763-.333.763-.911zM86.92 25.54c.634 0 .854.348.854.833v1.652h-.488v-1.582c0-.361-.145-.519-.473-.519-.247 0-.516.144-.58.338-.064.111-.07.204-.07.477v1.286h-.488v-1.523c0-.444-.087-.578-.414-.578-.295 0-.558.153-.66.398-.043.102-.038.144-.038.408v1.295h-.488v-2.424h.488v.305c.295-.273.494-.366.816-.366.328 0 .527.102.704.366.295-.273.504-.366.837-.366zm-7.709 1.166c.462.158.59.306.59.602 0 .463-.45.777-1.121.777-.725 0-1.128-.305-1.128-.851h.505c.01.338.198.476.633.476.365 0 .602-.138.602-.35 0-.108-.049-.154-.269-.237l-.88-.324c-.355-.13-.494-.292-.494-.555 0-.417.418-.704 1.041-.704.57 0 1.037.246 1.037.773h-.484c-.01-.264-.198-.389-.574-.389-.306 0-.527.116-.527.287 0 .084.07.153.242.213l.827.282zm-3.167.051v.185h-2.046c.038.505.306.768.8.768.387 0 .613-.152.698-.485h.505c-.13.536-.59.86-1.224.86-.8 0-1.284-.486-1.284-1.268 0-.777.516-1.268 1.316-1.268.86 0 1.235.528 1.235 1.208zm-.494-.19c-.032-.407-.306-.643-.752-.643-.435 0-.703.213-.784.643h1.536zm-3.398-.966l-1.069.901 1.096 1.523h-.591l-.832-1.235-.382.305v.93h-.488v-3.313h.488v1.865l1.144-.976h.634zm-4.059 2.11c.022 0 .06-.01.14-.01v.315a.972.972 0 0 1-.295.051c-.29 0-.42-.12-.446-.366-.28.264-.596.384-.972.384-.542 0-.918-.291-.918-.717 0-.791 1.15-.814 1.847-.874v-.12c0-.325-.167-.45-.601-.45-.403 0-.602.125-.623.43h-.505c.022-.235.054-.347.161-.476.183-.222.516-.338.967-.338.633 0 1.08.162 1.08.773v1.143c0 .176.037.254.165.254zm-.65-.894c-.606.074-.864.116-1.02.185-.198.06-.295.19-.295.334 0 .236.188.374.516.374.44 0 .8-.254.8-.564v-.329zm-4.439-1.277c.634 0 .854.348.854.833v1.652h-.489v-1.582c0-.361-.145-.519-.472-.519-.247 0-.516.144-.58.338-.065.111-.07.204-.07.477v1.286h-.489v-1.523c0-.444-.086-.578-.413-.578-.295 0-.558.153-.66.398-.043.102-.038.144-.038.408v1.295h-.488v-2.424h.488v.305c.295-.273.494-.366.816-.366.328 0 .527.102.704.366.295-.273.504-.366.837-.366zm-15.045 1.98l.741-1.92h.526L48.1 28.3c-.13.31-.306.722-.768.722-.113 0-.258-.014-.397-.042v-.393a.946.946 0 0 0 .284.05c.231 0 .306-.073.489-.568l-1.042-2.466h.548l.746 1.92zm-2.217-.763v.185h-2.045c.037.505.306.768.8.768.386 0 .612-.152.698-.485h.505c-.13.536-.591.86-1.225.86-.8 0-1.283-.486-1.283-1.268 0-.777.516-1.268 1.316-1.268.859 0 1.234.528 1.234 1.208zm-.494-.19c-.032-.407-.305-.643-.751-.643-.435 0-.704.213-.784.643h1.535zm-4.17-1.027c.386 0 .713.171.82.435.06.144.07.213.07.51v1.54h-.483v-1.471c0-.463-.161-.63-.553-.63-.316 0-.574.153-.66.37-.054.135-.06.181-.06.463v1.268h-.488v-2.424h.489v.323c.284-.291.494-.384.864-.384zm-2.583 1.277c0 .791-.478 1.268-1.278 1.268-.789 0-1.272-.477-1.272-1.268 0-.8.483-1.277 1.272-1.277.8 0 1.278.477 1.278 1.277zm-.515-.018c0-.555-.285-.875-.763-.875-.472 0-.757.32-.757.893 0 .56.285.893.757.893.483 0 .763-.333.763-.911zm-4.16-1.259c.633 0 .853.348.853.833v1.652h-.488v-1.582c0-.361-.145-.519-.473-.519-.247 0-.515.144-.58.338-.064.111-.07.204-.07.477v1.286h-.488v-1.523c0-.444-.086-.578-.414-.578-.295 0-.558.153-.66.398-.043.102-.038.144-.038.408v1.295h-.488v-2.424h.488v.305c.295-.273.494-.366.816-.366.328 0 .527.102.704.366.295-.273.505-.366.837-.366zm-7.302 0c.387 0 .714.171.822.435.059.144.07.213.07.51v1.54h-.484v-1.471c0-.463-.161-.63-.553-.63-.316 0-.574.153-.66.37-.054.135-.06.181-.06.463v1.268h-.488v-2.424h.489v.323c.284-.291.494-.384.864-.384zm-2.582 1.217v.185H21.89c.038.505.306.768.8.768.387 0 .613-.152.698-.485h.505c-.129.536-.59.86-1.224.86-.8 0-1.283-.486-1.283-1.268 0-.777.515-1.268 1.315-1.268.86 0 1.235.528 1.235 1.208zm-.494-.19c-.032-.407-.306-.643-.752-.643-.435 0-.703.213-.783.643h1.535zm-4.187-1.027c.698 0 .907.348.907.893v1.592h-.483v-1.5c0-.434-.15-.6-.531-.6-.247 0-.452.082-.596.254-.113.134-.145.254-.145.56v1.286h-.489v-3.313h.489v1.152a1.17 1.17 0 0 1 .848-.324zm-2.888.06h.515l-.848 2.425h-.488l-.543-1.865-.553 1.865h-.494l-.81-2.424h.536l.403 1.42c.043.143.07.213.118.467.048-.254.075-.324.118-.467l.42-1.42h.552l.403 1.401c.043.144.059.19.118.463.059-.264.07-.31.118-.463l.435-1.401zM112.96 2.87a2.872 2.872 0 0 1-.816 2.022c-.26.266-.557.471-.893.616a2.67 2.67 0 0 1-1.073.218c-.506 0-.97-.128-1.394-.382a2.872 2.872 0 0 1-1.376-2.474c0-.513.124-.987.372-1.426a2.799 2.799 0 0 1 1.01-1.04 2.645 2.645 0 0 1 1.388-.382c.497 0 .96.127 1.388.382.428.255.767.602 1.018 1.042.25.44.376.914.376 1.424zm-.412 0c0-.442-.107-.85-.32-1.226-.212-.374-.5-.67-.863-.888a2.27 2.27 0 0 0-1.187-.326c-.428 0-.822.109-1.184.326a2.362 2.362 0 0 0-.859.89 2.47 2.47 0 0 0-.315 1.224c0 .442.105.852.315 1.23.21.377.496.674.859.891.362.218.756.326 1.184.326.428 0 .823-.11 1.187-.328a2.452 2.452 0 0 0 1.183-2.12zm-3.517 1.613V1.232h1.32c.363 0 .644.06.84.182.2.122.299.363.299.724a.886.886 0 0 1-.084.421.865.865 0 0 1-.314.297c.146.076.242.17.287.282.044.112.07.276.076.49.006.215.016.38.031.492a.906.906 0 0 0 .146.363h-.584a2.42 2.42 0 0 1-.058-.544 3.832 3.832 0 0 0-.026-.474.35.35 0 0 0-.161-.245c-.095-.063-.255-.095-.48-.095h-.814v1.358h-.478zm.478-2.797v.985h.799c.175 0 .313-.016.416-.049a.388.388 0 0 0 .22-.153.537.537 0 0 0 .068-.292c0-.19-.05-.32-.148-.388-.098-.069-.274-.103-.527-.103h-.828z"/>
        <path id="e" d="M6.236 3.29c-.33.568-.645 1.032-.317 1.69.181.36.745.728.872.795.466.23.903.452.589.452-.967 0 .177.884-1.246-.119-.237-.167-.717-.617-.759-1.294-.05-.77.647-1.398.861-1.523m.829 4.975c-.006-.463 0-.976.238-1.31.026-.036.05-.074.079-.12.14-.225.311-.499.811-.86-1.184-.424-1.845-.99-1.937-1.537-.246-1.46 3.672-2.798 3.62-2.927-.05-.13-1.65.05-2.087.18-2.216.518-3.787 1.917-3.787 3.68 0 1.48 1.764 2.43 3.063 2.894m14.021-1.262c-.85.856-2.127.738-2.127.738 1.47-.583.388-1.05.735-.97.35.074.619-.04 1.664-.39 1.044-.351.58-.234-.272.622m.89-1.633c-.542.079-.656.116-1.121.116-.149 0-.453.087-.79.204-.274.37-.575.695-.902.973-.448.38-.946.67-1.49.868.152.12.347.255.593.404.889.544 1.738.778 3.208-.427 1.468-1.206 1.931-2.138 1.7-2.293-.232-.155-.656.079-1.198.155m-5.552-3.645a22.232 22.232 0 0 0-7.26 3.86 3.761 3.761 0 0 1-1-.117 23.125 23.125 0 0 1 7.414-4.218c.287.125.582.297.846.475m9.78 11.68c-.927 5.603-8.772 7.884-10.393 9.853-1.062-.676 5.11-6.361 6.037-8.355 1.304-2.801-.153-4.687 1.45-5.603 1.352-.773 3.49.565 2.905 4.105m-13.008 1.776c-.976-1.04-.484-1.883-.792-2.142-.364-.305-.496-.768.256-.65.742.119 1.264-.021 1.728-.335.727-.49.541-1.839 1.932-2.048 1.392-.206 2.445.179 2.162 1.91-.37 2.27-3.944 4.695-5.286 3.265m-.574-4.925c.848-.693 1.442-.672 1.686-.366.436.548-.031 1.544-.917 1.785-.246.067-1.369.21-1.597-.066-.23-.276.06-.728.828-1.353m-1.069 3.767c-.336.183-.978-.491-1.417-.751-.438-.26-.825-.128-1.47-.05-.644.076-1.565.016-1.65-.236-.152-.466.388-.594 1.135-.724s1.212.258 1.521.258c.309 0 .649-.22 1.443.234.723.415.772 1.088.438 1.27m-1.521 3.666c-.618.466-1.894.142-1.894-.31 0-.468.593-.194 1.004-.194.414 0 .93-.326.698-.973-.11-.302-.104-.933.385-.388.489.543.578 1.282-.193 1.865m-2.422-1.93c-.173.301-.696.854-1.16.75-.465-.102-.85 0-1.159.182-.309.181-1.47.699-1.52.105-.054-.623.36-1.555 1.211-1.892.85-.337 1.674-.544 2.112-.44.44.103 1.03.389.516 1.295m.748-6.4c.566-.206.438.26.128.673-.31.415-.154 1.116-.335 1.322-.179.208-.952.017-1.186-.311-.386-.545.825-1.477 1.393-1.684m.256-2.487c.541-.414 2.063-.907 2.372-1.036.309-.13 1.288-.648 1.624-.338.334.311-.387.648-.593 1.09-.208.44-.386 1.656-.337 2.306.052.646-.849-.261-1.055-.778-.207-.52-.129-.675-.748-.494-.618.182-1.803-.335-1.263-.75m13.33.909c-1.754 1.224-2.981 1.057-4 .46a6.775 6.775 0 0 1-.595-.376c-.169.046-.34.084-.516.116a4.338 4.338 0 0 1-.703.064c-1.35 0-1.907-.848-1.973-1.571-.101-1.117.438-1.552 1.173-1.991-1.28-.285-3.579.193-5.22.939-2.114.958-2.192 1.422-2.448 1.785-.258.365-.104 1.348-.18 1.61-.078.258-.413.67-.826 1.188-.412.52-.515 1.065-.49 1.375.027.311.336.726.49.855-.154.284-.696 1.711-.798 1.813-.234 0-.465.338-.567.44-.336.052-1.907.7-1.804 2.357.101 1.631 1.21 1.997 1.958 2.1.645.88 1.908 1.063 3.428 1.038.748-.014 1.508-.253 2.072-.473-5.376 8.29 2.032 16.496 4.953 18.16-.656-1.053-6.983-9.434 5.82-16.318 10.27-5.523 6.443-14.088 2.148-15.273-.288.453-.98 1.045-1.923 1.702M33.2 32.403c-.034-.569.693-.504.854-.405.161.096.258.356.063.356-.192 0-.53.258-.11.534.11.073-.775.08-.807-.486m3.928 7.795c.293.103.578.182.846.225C33.946 43.889 28.719 46 23 46 10.316 46 0 35.684 0 23c0-5.562 1.995-10.659 5.298-14.638.243.11.5.195.73.258C2.732 12.504.733 17.52.733 23 .733 35.28 10.72 45.266 23 45.266c5.36 0 10.283-1.903 14.128-5.07m-3.15-15.492c0 .098-.163.03-.184-.066-.018-.097-.047-.283-.047-.283s.386-.456.484-.456c.054 0 .144.253.144.389 0 .137-.058.213-.28.203-.223-.009-.116.117-.116.213m7.52 2.87c-.08.142-.282-.104-.363-.064-.078.04-.244-.013-.244-.128 0-.117.166-.208.373-.195.206.013.31.245.233.387m.101 1.362a1.758 1.758 0 0 0-.59.012c-.247.038-.181 0-.478-.012-.296-.014-.474-.35-.412-.494.14-.323.426-.298.618-.244.195.05.516.323.632.402.115.076.194.051.515.153.322.103-.09.21-.285.183m.555-1.554c.181-.064.31.167.31.258 0 .092-.14.063-.194.027-.193-.144-.116-.285-.116-.285m-1.779-.247c-.231.221-1.356.678-1.375 1.243-.02.564.97 1.284 2.15 1.088 1.178-.194 1.559-1.002 1.546-1.358-.02-.526-.658-1.713-1.74-2.12.02.273-.275.854-.58 1.147m-1.095 9.657c.277.252.389 1.042.297 1.315-.08.233-.402.36-.542.246-.297-.246-.666-.815-.553-.86.43-.176.522-.955.798-.701m-1.004-6.095c-.053-.324-.027-.998.386-.75.412.245.708.075.682.205-.024.13-.14.182-.27.274-.1.07-.451.426-.516.581-.064.157-.232.013-.282-.31m-1.572-2.785c-.306-1.671 3.646-1.412 2.64-.868 0 0-.746.374-.889.79-.381 1.108-1.589.969-1.751.078m-1.099 8.122c-.697.234-1.74.291-2.321.06-.982-.395.812-.407 1.915-1.457.631-.603.812-1.691 1.855-.993.966.648-.754 2.158-1.449 2.39m-3.308-2.954c-.177-.316-.105-.752.115-.971.227-.227.648-.48 1.534-.543.744-.052 1.128-.307 1.296-.387.17-.08.35 1.701-1.207 2.146-.844.24-1.553.086-1.738-.245m-.823-6.462c.039.652-.684 1.108-1.018.869-.334-.242-.197-1.692.085-2.703.846-3.044 3.433-4.172 4.149-4.073-.049.386-1.825.782-2.53 2.25-.907 1.886-.727 3.003-.686 3.657m-3.298 3.436c-2.49 3.18-7.456-1.592-1.444-5.548 1.869-1.23 3.099-2.955 3.7-3.807.193 1.125-1.659 3.575-2.101 4.93-.782 2.394 1.025 2.918-.155 4.425m-7.722 9.283c-2.242-1.422-1.261-4.493-1.028-3.388.514 2.418 3.578 2.238 4.797 2.873 1.083.564-1.176 2.162-3.77.515M36.648 21.13c.637.175.31.681.095.564-.21-.117-.85-.019-1.352.27-.502.295-1.411 1.246-1.604 1.517-.195.271-.33.797-.29 1.185-.155-.194-.204-.653-.097-1.068.155-.601.87-1.496 1.682-2.06.81-.563 1.566-.408 1.566-.408m-1.45 4.878c.505-.149 1.082-.524.831-.097-.253.428-.886.99-1.778.914-.756-.064-1.682-.702-1.644-1.361.035-.605.444-.641.639-.487.193.156.672 1.409 1.953 1.031m3.67 3.172c.168.157.207.415.774.52.85.155.49.206.296.247-.192.037-.824.011-1.146-.13-.285-.126-.574-.482-.515-.609.13-.286.424-.182.591-.028m.697 5.473c.329-1.12-.503-2.603-.619-2.797-.116-.194-.252-.328-.23-.564.017-.231.83-1.068 1.023-1.243.541.097.843-.102.972-.272.45-.012.709-.194.709-.194.024-.011.049-.027.072-.04a4.392 4.392 0 0 1-.743.145c-.677 0-1.348-.223-1.741-.63-.205-.213-.305-.444-.3-.668.02-.906.868-1.154 1.294-1.527.446-.389.711-1.201.711-1.201s.624-.102 1.416 1.105c0-.701-.375-1.074-.69-1.342-.387-.33-1.101-.175-1.101-.175-1.064-.99-1.914-.778-2.28-.759-.465.025-1.025.332-1.606.486.105-.187.2-.355.286-.504a.602.602 0 0 1-.16.021.168.168 0 0 1-.065-.018c.006.003.006.01.013.01a2.08 2.08 0 0 1-.267.316c-.406.369-.424.371-.984.544-.56.174-1.547-.252-1.606-.855-.057-.6.504-1.087 1.412-1.961.909-.875 1.72-.602 2.01-.486 0 0 .476.267.47.553.02.001.061.013.078.018.023.007.05.017.076.028.187-1.175-.566-1.834-1.068-2.077-.522-.253-1.064.37-1.045.233.02-.135.54-2.506-.309-5.188-1.237-3.516-4.018-6.41-8.318-8.14C29.138 8.805 35.271 17.946 23 24.4c-11.262 5.922-7.71 13.116-4.1 15.31-7.51-1.848-13.08-8.61-13.08-16.674 0-.901.069-1.786.202-2.65-.342-.06-.898-.831-1.277-.73a18.628 18.628 0 0 0-.308 3.38c0 10.248 8.327 18.556 18.6 18.556 1.498 0 2.955-.176 4.35-.51-.396-.396-.649-.81-.882-1.2-.021-.042-.043-.08-.064-.124-1.03-2.128.516-5.082.516-5.082s3.138 2.318 4.593 2.215c.158.208 1.005 1.576.608 3.028 1.323-.351 2.842-.835 3.883-1.421.41.314 1.254.815 1.629.996 1.083.525 1.798.311 2.089-.038.248-.303.538-2.297-.768-3.56a4.94 4.94 0 0 0 .574-1.242m-9.76 5.579c-1.49.079-1.76-1.108-1.895-1.612-.136-.506.425-1.36.425-1.36.096-.391.812.037 1.101.211.29.175 1.373.37 1.335.545-.04.176-1.7.137-1.74.35-.04.215 1.236.348 1.623.33.387-.02.637 1.458-.85 1.536m1.545-3.03c-1.603.075-4.057-1.382-4.057-1.382-.058.097-1.122 2.118-.446 3.771.677 1.65 2.571 1.962 3.46 1.67.99-.323 2.282-1.632 1.043-4.06M12.66 10.592c0-.187.592-.47.826.024.205.442-.129.702-.36.702-.159 0-.49-.13-.439-.312.03-.112.406.078.36-.233-.025-.18-.387-.05-.387-.18M46 23c0 5.638-2.047 10.8-5.426 14.806-.039-.358-.085-.708-.132-1.006 3.01-3.798 4.824-8.588 4.824-13.8C45.266 10.722 35.276.733 23 .733c-.72 0-1.432.042-2.137.11a7.998 7.998 0 0 0-.934-.614A23.152 23.152 0 0 1 22.999 0C35.683 0 46 10.316 46 23M18.99 3.355c-.148.89-1.043 1.572-1.48 1.901-2.187 1.646-.865-.074-1.757.393-.285-.194 1.449-1.341 1.505-1.456.402.17 1.997-1.47.257-3.014.228.212 1.675.981 1.475 2.176m-1.176-1.198c.22.697-.31 1.53-1.495 2.257-1.185.722-1.85 1.058-1.726 2.018.053.408.361 1.428 2.164 1.116 1.805-.311 2.99-1.504 3.738-2.98.747-1.476.803-3.746-2.65-4.37-2.81-.463-4.842.542-4.842.644.052.208 4.237-.5 4.81 1.315m19.419 21.49l-.085.137a.56.56 0 0 0-.096-.13c.01-.02.02-.037.031-.055a.607.607 0 0 0 .15.049m2.982.568c.004-.073.04-.86.04-1.181 0-9.179-7.214-16.675-16.294-17.154.21-.313.403-.844.55-1.346 9.583.75 17.126 8.746 17.126 18.5 0 .463-.067 1.588-.076 1.693-.308-.307-.918-.084-1.346-.512m-3.24-.218c.095.058.203.28.195.32-.061-.04-.315-.214-.315-.214-.066-.09.066-.14.12-.106m-.396.387c.164 0 .24-.078.368-.078.125 0 .387.28.27-.048-.115-.331-.222-.719-.436-.448-.044.06-.365.574-.202.574m-1.458-.783a24.016 24.016 0 0 1-.38-.047c-.097-.048-.002-.155.06-.15.113.008.307.158.32.197m-.175-.422c-.087-.03-.28.108-.445.224-.164.116-.105.369-.105.369s.19-.058.298-.077c.155-.029.513.067.552-.019.077-.137-.22-.47-.3-.497m3.288.244c.153.122.27.386.243.412-.1-.08-.498-.416-.498-.416-.09-.124.17-.063.255.004m.404.64c.125-.066-.203-.601-.328-.797-.126-.193-.533-.503-.696-.542-.194-.05-.488.362-.512.436-.165.495.232.339.754.456.521.116.656.514.782.448m-1.97-1.643c-.06-.01-.175-.163-.175-.163.01-.05.04-.07.116-.128.076-.058.146.068.183.049.038-.02.088-.039.203 0 .116.038.126.106.165.106.037 0 .095 0 .163.02s.067.068.118.174c.05.112-.1.105-.118.135-.019.04-.068.071-.116 0-.047-.066-.114-.144-.114-.144s-.078.069-.127.038c-.049-.029-.124-.106-.154-.126-.03-.02-.088.049-.143.04m-.476.205c.223.115.476.561.455.64a41.991 41.991 0 0 1-.734-.427c-.155-.176.154-.28.28-.213m-.669.328c.127-.008.436.082.581.157.136.067.666.427.714.407.05-.02.01-.555-.375-.97-.461-.5-.783-.253-.9-.176-.116.077-.289.32-.289.427 0 .118.144.164.27.155"/>
    </defs>
    <g fill="none" fill-rule="evenodd">
        <g transform="translate(91.127 13.169)">
            <mask id="b" fill="#fff">
                <use xlink:href="#a"/>
            </mask>
            <g fill="#F50" mask="url(#b)">
                <path d="M-4.679-1.36h83.06v29.02h-83.06z"/>
            </g>
        </g>
        <g transform="translate(56.815 11.809)">
            <mask id="d" fill="#fff">
                <use xlink:href="#c"/>
            </mask>
            <g fill="#FFF" mask="url(#d)">
                <path d="M0 0h113.082v29.021H0z"/>
            </g>
        </g>
        <g>
            <g>
                <mask id="f" fill="#fff">
                    <use xlink:href="#e"/>
                </mask>
                <g fill="#F50" mask="url(#f)">
                    <path d="M0 0h46v46H0z"/>
                </g>
            </g>
        </g>
    </g>
</svg>
