<svg xmlns="http://www.w3.org/2000/svg" xmlns:xlink="http://www.w3.org/1999/xlink" width="64" height="64" viewBox="0 0 64 64">
    <defs>
        <path id="a" d="M32 0c17.673 0 32 14.327 32 32 0 17.673-14.326 32-32 32C14.327 64 0 49.673 0 32 0 14.327 14.327 0 32 0zm0 51.793c10.915 0 19.794-8.879 19.794-19.793S42.914 12.206 32 12.206 12.207 21.086 12.207 32 21.087 51.793 32 51.793zm0-34.226c7.96 0 14.434 6.474 14.434 14.433S39.96 46.433 32 46.433c-7.958 0-14.433-6.475-14.433-14.433 0-7.959 6.475-14.433 14.433-14.433zm17.952-3.604h-6.203a21.637 21.637 0 0 1 6.203 6.158v-6.158zm-36.014 0v6.328a21.634 21.634 0 0 1 6.314-6.328h-6.314zm0 36.014h6.224a21.636 21.636 0 0 1-6.224-6.268v6.268zm36.014 0v-6.098a21.647 21.647 0 0 1-6.112 6.098h6.112z"/>
    </defs>
    <g fill="none" fill-rule="evenodd">
        <mask id="b" fill="#fff">
            <use xlink:href="#a"/>
        </mask>
        <use fill="#124793" fill-rule="nonzero" xlink:href="#a"/>
        <g mask="url(#b)">
            <path d="M0 0h64v64H0z"/>
        </g>
    </g>
</svg>
